<svg width="24" height="24" viewBox="0 0 24 24" fill="none" xmlns="http://www.w3.org/2000/svg">
<circle cx="12" cy="12" r="10" fill="#F5F1EA"/>
<path d="M10.12 8.64907H11.009C11.1956 8.64907 11.3263 8.6934 11.401 8.78207C11.4756 8.86607 11.513 9.04107 11.513 9.30707V15.4741C11.513 15.6561 11.471 15.8007 11.387 15.9081C11.303 16.0107 11.1816 16.0714 11.023 16.0901L9.99397 16.2021C9.72797 16.2441 9.59497 16.3817 9.59497 16.6151C9.59497 16.7364 9.6323 16.8321 9.70697 16.9021C9.7863 16.9674 9.90297 17.0001 10.057 17.0001H14.467C14.6256 17.0001 14.7423 16.9674 14.817 16.9021C14.8963 16.8321 14.936 16.7364 14.936 16.6151C14.936 16.3957 14.8006 16.2581 14.53 16.2021L13.648 16.0901C13.4706 16.0667 13.3446 16.0037 13.27 15.9011C13.1953 15.7984 13.158 15.6584 13.158 15.4811V7.50107C13.158 7.16507 13.004 6.99707 12.696 6.99707C12.6073 6.99707 12.5233 7.01807 12.444 7.06007C12.3646 7.10207 12.283 7.16507 12.199 7.24907C12.0496 7.40774 11.898 7.52674 11.744 7.60607C11.5946 7.68074 11.394 7.71807 11.142 7.71807H10.141C9.97764 7.71807 9.8493 7.7624 9.75597 7.85107C9.6673 7.93974 9.62297 8.0494 9.62297 8.18007C9.62297 8.3294 9.66497 8.44607 9.74897 8.53007C9.83297 8.6094 9.95664 8.64907 10.12 8.64907Z" fill="#41342D"/>
</svg>
