<svg width="24" height="24" viewBox="0 0 24 24" fill="none" xmlns="http://www.w3.org/2000/svg">
<circle cx="12" cy="12" r="10" fill="#F5F1EA"/>
<path d="M9.67995 15.5652L9.25995 15.1662L11.36 13.4862C11.92 13.0616 12.3726 12.6626 12.718 12.2892C13.068 11.9159 13.3223 11.5332 13.481 11.1412C13.6396 10.7492 13.719 10.3199 13.719 9.85323C13.719 9.37256 13.656 8.97123 13.53 8.64923C13.4086 8.32256 13.229 8.07756 12.991 7.91423C12.7576 7.74623 12.473 7.66223 12.137 7.66223C11.577 7.66223 11.1686 7.80923 10.912 8.10323C10.66 8.39723 10.534 8.74956 10.534 9.16023V9.71323C10.534 9.9979 10.4593 10.2172 10.31 10.3712C10.1606 10.5252 9.95995 10.6022 9.70795 10.6022C9.46062 10.6022 9.26462 10.5159 9.11995 10.3432C8.97528 10.1659 8.90295 9.9139 8.90295 9.58723C8.90295 9.13923 9.02662 8.71923 9.27395 8.32723C9.52595 7.93523 9.90162 7.6179 10.401 7.37523C10.9003 7.13256 11.521 7.01123 12.263 7.01123C12.977 7.01123 13.5673 7.13023 14.034 7.36823C14.5006 7.60156 14.8483 7.9259 15.077 8.34123C15.3103 8.7519 15.427 9.2209 15.427 9.74823C15.427 10.2102 15.3266 10.6466 15.126 11.0572C14.93 11.4679 14.608 11.8832 14.16 12.3032C13.7166 12.7186 13.124 13.1689 12.382 13.6542L9.67995 15.5652ZM8.69995 16.2512C8.69995 15.8452 8.85862 15.4976 9.17595 15.2082C9.49795 14.9189 9.96228 14.7742 10.569 14.7742C10.877 14.7742 11.171 14.8209 11.451 14.9142C11.7356 15.0029 12.0133 15.1079 12.284 15.2292C12.5593 15.3506 12.8346 15.4579 13.11 15.5512C13.39 15.6399 13.677 15.6842 13.971 15.6842C14.3116 15.6842 14.5776 15.6049 14.769 15.4462C14.9603 15.2829 15.1143 15.0472 15.231 14.7392C15.2916 14.6272 15.3546 14.5479 15.42 14.5012C15.49 14.4499 15.5693 14.4289 15.658 14.4382C15.756 14.4476 15.826 14.4989 15.868 14.5922C15.91 14.6809 15.9216 14.8232 15.903 15.0192C15.8423 15.5232 15.728 15.9362 15.56 16.2582C15.3966 16.5756 15.1796 16.8112 14.909 16.9652C14.643 17.1146 14.3233 17.1892 13.95 17.1892C13.67 17.1892 13.4156 17.1542 13.187 17.0842C12.9583 17.0142 12.7436 16.9069 12.543 16.7622C12.347 16.6176 12.1486 16.4356 11.948 16.2162C11.7473 16.0296 11.5793 15.8919 11.444 15.8032C11.3133 15.7099 11.1616 15.6632 10.989 15.6632C10.8023 15.6632 10.6646 15.7309 10.576 15.8662C10.492 16.0016 10.4383 16.1859 10.415 16.4192C10.3963 16.5919 10.3473 16.7366 10.268 16.8532C10.1933 16.9652 10.0906 17.0492 9.95995 17.1052C9.83395 17.1659 9.67995 17.1962 9.49795 17.1962C9.27395 17.1962 9.08495 17.1169 8.93095 16.9582C8.77695 16.7949 8.69995 16.5592 8.69995 16.2512Z" fill="#41342D"/>
</svg>
