<svg width="24" height="24" viewBox="0 0 24 24" fill="none" xmlns="http://www.w3.org/2000/svg">
<circle cx="12" cy="12" r="10" fill="#F5F1EA"/>
<path d="M11.4021 11.8972L11.3251 11.6312C11.3764 11.6125 11.4441 11.5985 11.5281 11.5892C11.6167 11.5752 11.7077 11.5659 11.8011 11.5612C11.8944 11.5519 11.9807 11.5472 12.0601 11.5472C12.7134 11.5472 13.2664 11.6592 13.7191 11.8832C14.1764 12.1072 14.5241 12.4199 14.7621 12.8212C15.0047 13.2179 15.1261 13.6799 15.1261 14.2072C15.1261 14.7999 14.9837 15.3225 14.6991 15.7752C14.4144 16.2232 14.0131 16.5732 13.4951 16.8252C12.9817 17.0725 12.3751 17.1962 11.6751 17.1962C11.0077 17.1962 10.4431 17.0959 9.98105 16.8952C9.52372 16.6945 9.17605 16.4285 8.93805 16.0972C8.70005 15.7612 8.58105 15.3949 8.58105 14.9982C8.58105 14.6902 8.66272 14.4475 8.82605 14.2702C8.98939 14.0882 9.19705 13.9972 9.44905 13.9972C9.70105 13.9972 9.89005 14.0765 10.0161 14.2352C10.1421 14.3892 10.2051 14.5992 10.2051 14.8652V15.4252C10.2051 15.7659 10.3381 16.0342 10.6041 16.2302C10.8701 16.4215 11.2527 16.5172 11.7521 16.5172C12.0927 16.5172 12.3984 16.4402 12.6691 16.2862C12.9397 16.1275 13.1521 15.8965 13.3061 15.5932C13.4647 15.2899 13.5441 14.9165 13.5441 14.4732C13.5441 13.7685 13.3761 13.2482 13.0401 12.9122C12.7087 12.5762 12.1767 12.4082 11.4441 12.4082H10.9611C10.8257 12.4082 10.7137 12.3709 10.6251 12.2962C10.5411 12.2215 10.4991 12.1165 10.4991 11.9812C10.4991 11.8645 10.5294 11.7572 10.5901 11.6592C10.6507 11.5612 10.7347 11.4585 10.8421 11.3512L14.1111 7.8652L14.1741 8.4882H10.4081C10.2261 8.4882 10.0907 8.5302 10.0021 8.6142C9.91339 8.6982 9.84572 8.82653 9.79905 8.9992L9.63805 9.6292C9.61005 9.75053 9.56105 9.84853 9.49105 9.9232C9.42105 9.9932 9.32539 10.0259 9.20405 10.0212C9.07805 10.0212 8.97539 9.9792 8.89605 9.8952C8.82139 9.8112 8.79339 9.68053 8.81205 9.5032L8.99405 7.7952C9.01739 7.60853 9.08505 7.46386 9.19705 7.3612C9.31372 7.25386 9.47939 7.2002 9.69405 7.2002H14.7131C14.8624 7.2002 14.9791 7.2422 15.0631 7.3262C15.1471 7.40553 15.1891 7.5082 15.1891 7.6342C15.1891 7.75086 15.1471 7.86286 15.0631 7.9702C14.9791 8.07753 14.8601 8.20586 14.7061 8.3552L11.4021 11.8972Z" fill="#41342D"/>
</svg>
