<svg width="20" height="20" viewBox="0 0 20 20" fill="none" xmlns="http://www.w3.org/2000/svg">
<path d="M10.3154 0.489349C10.1166 0.492454 9.92724 0.574317 9.78882 0.716956C9.65039 0.859595 9.57424 1.05135 9.57709 1.25009V9.25009H1.57709C1.4777 9.24869 1.37903 9.26705 1.28681 9.30411C1.19458 9.34117 1.11064 9.39619 1.03986 9.46597C0.969084 9.53576 0.912882 9.61891 0.874521 9.7106C0.836161 9.80229 0.816406 9.9007 0.816406 10.0001C0.816406 10.0995 0.836161 10.1979 0.874521 10.2896C0.912882 10.3813 0.969084 10.4644 1.03986 10.5342C1.11064 10.604 1.19458 10.659 1.28681 10.6961C1.37903 10.7331 1.4777 10.7515 1.57709 10.7501H9.57709V18.7501C9.57568 18.8495 9.59404 18.9481 9.6311 19.0404C9.66817 19.1326 9.72319 19.2165 9.79297 19.2873C9.86275 19.3581 9.94591 19.4143 10.0376 19.4527C10.1293 19.491 10.2277 19.5108 10.3271 19.5108C10.4265 19.5108 10.5249 19.491 10.6166 19.4527C10.7083 19.4143 10.7914 19.3581 10.8612 19.2873C10.931 19.2165 10.986 19.1326 11.0231 19.0404C11.0601 18.9481 11.0785 18.8495 11.0771 18.7501V10.7501H19.0771C19.1765 10.7515 19.2751 10.7331 19.3674 10.6961C19.4596 10.659 19.5435 10.604 19.6143 10.5342C19.6851 10.4644 19.7413 10.3813 19.7797 10.2896C19.818 10.1979 19.8378 10.0995 19.8378 10.0001C19.8378 9.9007 19.818 9.80229 19.7797 9.7106C19.7413 9.61891 19.6851 9.53576 19.6143 9.46597C19.5435 9.39619 19.4596 9.34117 19.3674 9.30411C19.2751 9.26705 19.1765 9.24869 19.0771 9.25009H11.0771V1.25009C11.0785 1.14971 11.0598 1.05006 11.022 0.957046C10.9842 0.864034 10.9282 0.779553 10.8571 0.70861C10.7861 0.637666 10.7015 0.581705 10.6085 0.544042C10.5154 0.506379 10.4158 0.487781 10.3154 0.489349Z" fill="#41342D"/>
</svg>
