<svg width="24" height="24" viewBox="0 0 24 24" fill="none" xmlns="http://www.w3.org/2000/svg">
<circle cx="12" cy="12" r="10" fill="#E8E4DD"/>
<path d="M15.2433 7.98922C15.0452 7.9939 14.857 8.07675 14.7198 8.21969L12.0001 10.9394L9.28039 8.21969C9.21048 8.1477 9.12684 8.09047 9.03441 8.05138C8.94198 8.0123 8.84265 7.99216 8.7423 7.99215C8.59304 7.99219 8.44719 8.03676 8.3234 8.12015C8.19961 8.20355 8.10351 8.32198 8.04741 8.4603C7.99131 8.59861 7.97775 8.75052 8.00847 8.89659C8.03918 9.04266 8.11278 9.17624 8.21984 9.28024L10.9396 12L8.21984 14.7197C8.14786 14.7888 8.0904 14.8716 8.05081 14.9632C8.01122 15.0548 7.99031 15.1533 7.9893 15.2531C7.98828 15.3529 8.00719 15.4519 8.0449 15.5443C8.08262 15.6366 8.13839 15.7206 8.20895 15.7911C8.27951 15.8617 8.36344 15.9175 8.45582 15.9552C8.5482 15.9929 8.64718 16.0118 8.74696 16.0108C8.84674 16.0098 8.94531 15.9889 9.03691 15.9493C9.1285 15.9097 9.21128 15.8522 9.28039 15.7802L12.0001 13.0605L14.7198 15.7802C14.789 15.8522 14.8717 15.9097 14.9633 15.9493C15.0549 15.9889 15.1535 16.0098 15.2533 16.0108C15.3531 16.0118 15.452 15.9929 15.5444 15.9552C15.6368 15.9175 15.7207 15.8617 15.7913 15.7911C15.8618 15.7206 15.9176 15.6366 15.9553 15.5443C15.993 15.4519 16.0119 15.3529 16.0109 15.2531C16.0099 15.1533 15.989 15.0548 15.9494 14.9632C15.9098 14.8716 15.8524 14.7888 15.7804 14.7197L13.0607 12L15.7804 9.28024C15.8895 9.17556 15.9643 9.04037 15.9952 8.89239C16.0261 8.74441 16.0116 8.59054 15.9535 8.45097C15.8955 8.3114 15.7966 8.19263 15.6698 8.11023C15.5431 8.02783 15.3944 7.98565 15.2433 7.98922Z" fill="#E7655C"/>
</svg>
