<svg width="25" height="24" viewBox="0 0 25 24" fill="none" xmlns="http://www.w3.org/2000/svg">
<path d="M4 3L5.03337 6.19439M5.03337 6.19439L6.61473 12.7834C6.93846 14.1323 8.14473 15.0833 9.53189 15.0833H15.9355C17.3121 15.0833 18.512 14.1464 18.8459 12.8109L20.1894 7.43693C20.3472 6.80578 19.8698 6.19439 19.2193 6.19439H5.03337Z" stroke="#41342D" stroke-width="1.8" stroke-linecap="round"/>
<path d="M8.89052 17.2514C9.14057 17.0013 9.47971 16.8608 9.83333 16.8608C10.187 16.8608 10.5261 17.0013 10.7761 17.2514C11.0262 17.5014 11.1667 17.8406 11.1667 18.1942C11.1667 18.5478 11.0262 18.8869 10.7761 19.137C10.5261 19.387 10.187 19.5275 9.83333 19.5275C9.47971 19.5275 9.14057 19.387 8.89052 19.137C8.64048 18.8869 8.5 18.5478 8.5 18.1942C8.5 17.8406 8.64048 17.5014 8.89052 17.2514Z" fill="#41342D"/>
<path d="M15.1127 17.2514C15.3628 17.0013 15.7019 16.8608 16.0556 16.8608C16.4092 16.8608 16.7483 17.0013 16.9984 17.2514C17.2484 17.5014 17.3889 17.8406 17.3889 18.1942C17.3889 18.5478 17.2484 18.8869 16.9984 19.137C16.7483 19.387 16.4092 19.5275 16.0556 19.5275C15.7019 19.5275 15.3628 19.387 15.1127 19.137C14.8627 18.8869 14.7222 18.5478 14.7222 18.1942C14.7222 17.8406 14.8627 17.5014 15.1127 17.2514Z" fill="#41342D"/>
</svg>
