<svg width="50" height="50" viewBox="0 0 50 50" fill="none" xmlns="http://www.w3.org/2000/svg">
<rect x="0.5" y="0.5" width="49" height="49" rx="24.5" fill="#F5F1EA"/>
<g clip-path="url(#clip0_1_3082)">
<path d="M26.6969 9.93449C26.4342 9.942 26.1848 10.0495 26.0015 10.2343L23.391 12.7952C23.3191 12.849 23.2549 12.912 23.2 12.9825L22.9669 13.2112C22.7773 13.3973 22.6708 13.6497 22.6708 13.9128C22.6708 14.176 22.7773 14.4283 22.9669 14.6145L26.0015 17.5914C26.0947 17.6867 26.2064 17.7627 26.3299 17.8151C26.4534 17.8675 26.5864 17.8951 26.7209 17.8965C26.8555 17.8978 26.989 17.8728 27.1136 17.8229C27.2382 17.773 27.3514 17.6992 27.4466 17.6058C27.5417 17.5125 27.6169 17.4014 27.6678 17.2792C27.7187 17.157 27.7442 17.026 27.7428 16.894C27.7414 16.762 27.7132 16.6316 27.6598 16.5104C27.6065 16.3892 27.5289 16.2797 27.4319 16.1882L25.8092 14.5964C31.2006 14.8235 35.4833 19.1513 35.4833 24.4977C35.4833 27.8557 33.7861 30.8051 31.1909 32.603C31.0823 32.6781 30.9899 32.7735 30.9189 32.8837C30.848 32.9939 30.7998 33.1167 30.7773 33.2452C30.7547 33.3736 30.7581 33.5052 30.7874 33.6323C30.8166 33.7595 30.8711 33.8797 30.9478 33.9862C31.0244 34.0927 31.1216 34.1833 31.234 34.2529C31.3463 34.3225 31.4715 34.3698 31.6025 34.3919C31.7334 34.414 31.8675 34.4106 31.9971 34.3819C32.1267 34.3532 32.2493 34.2997 32.3578 34.2245C35.4676 32.0702 37.5063 28.5133 37.5063 24.4977C37.5063 18.2772 32.6146 13.1619 26.4085 12.6414L27.4319 11.6375C27.5778 11.498 27.6774 11.3186 27.7177 11.1228C27.758 10.9269 27.7371 10.7236 27.6576 10.5396C27.5782 10.3556 27.444 10.1994 27.2726 10.0914C27.1012 9.98342 26.9005 9.92874 26.6969 9.93449ZM19.0143 14.5821C18.7866 14.573 18.5625 14.6394 18.3781 14.7708C15.2683 16.9251 13.2296 20.482 13.2296 24.4977C13.2296 30.7182 18.1214 35.8334 24.3275 36.3539L23.3041 37.3579C23.207 37.4493 23.1295 37.5588 23.0761 37.68C23.0227 37.8012 22.9945 37.9316 22.9931 38.0636C22.9918 38.1957 23.0173 38.3266 23.0681 38.4489C23.119 38.5711 23.1942 38.6821 23.2894 38.7755C23.3846 38.8688 23.4978 38.9426 23.6223 38.9925C23.7469 39.0424 23.8804 39.0674 24.015 39.0661C24.1496 39.0648 24.2825 39.0371 24.4061 38.9847C24.5296 38.9323 24.6412 38.8563 24.7345 38.7611L27.3449 36.2001C27.4169 36.1463 27.4811 36.0833 27.5359 36.0128L27.769 35.7841C27.9587 35.598 28.0652 35.3456 28.0652 35.0825C28.0652 34.8193 27.9587 34.567 27.769 34.3809L24.7345 31.4039C24.6402 31.3086 24.5274 31.2329 24.4027 31.1812C24.278 31.1295 24.1441 31.1028 24.0087 31.1028C23.8074 31.1029 23.6107 31.1619 23.4438 31.2722C23.2768 31.3825 23.1472 31.5392 23.0715 31.7222C22.9959 31.9053 22.9776 32.1062 23.019 32.2995C23.0604 32.4928 23.1597 32.6695 23.3041 32.8071L24.9268 34.399C19.5354 34.1718 15.2527 29.844 15.2527 24.4977C15.2527 21.1397 16.9499 18.1902 19.5451 16.3924C19.7204 16.2745 19.8534 16.1055 19.9252 15.9093C19.9971 15.7131 20.0041 15.4997 19.9454 15.2994C19.8867 15.0991 19.7651 14.922 19.598 14.7932C19.4308 14.6645 19.2266 14.5906 19.0143 14.5821Z" fill="#41342D"/>
<path d="M27.7957 25.6362C27.7957 27.0198 26.7087 28.1414 25.368 28.1414C24.0272 28.1414 22.9403 27.0198 22.9403 25.6362C22.9403 23.131 25.368 20.8584 25.368 20.8584C25.368 20.8584 27.7957 23.131 27.7957 25.6362Z" stroke="#41342D" stroke-width="1.82075" stroke-linecap="round" stroke-linejoin="round"/>
</g>
<defs>
<clipPath id="clip0_1_3082">
<rect width="29.1321" height="29.1321" fill="white" transform="translate(10.3679 9.5)"/>
</clipPath>
</defs>
</svg>
