<svg width="24" height="24" viewBox="0 0 24 24" fill="none" xmlns="http://www.w3.org/2000/svg">
<path d="M8.04171 5C6.44194 5 4.98506 5.39174 3.884 6.06934C2.78295 6.74694 2.00006 7.76347 2.00006 8.95833C2.00006 9.04325 2.01266 9.12512 2.0204 9.20817C2.00614 9.26261 1.9993 9.31873 2.00006 9.375V14.7917C2.00006 17.6607 4.33934 20 7.20837 20H22V11.6667H8.04171C6.64981 11.6667 5.39847 11.3117 4.53911 10.7829C3.67975 10.254 3.25005 9.6043 3.25005 8.95833C3.25005 8.31236 3.67975 7.66265 4.53911 7.13379C5.39847 6.60493 6.64981 6.25 8.04171 6.25C9.4336 6.25 10.6849 6.60493 11.5443 7.13379C12.4037 7.66265 12.8334 8.31236 12.8334 8.95833C12.8322 9.04115 12.8475 9.12338 12.8784 9.20023C12.9093 9.27709 12.9551 9.34704 13.0133 9.40602C13.0714 9.465 13.1407 9.51184 13.2171 9.54381C13.2935 9.57577 13.3755 9.59224 13.4584 9.59224C13.5412 9.59224 13.6232 9.57577 13.6996 9.54381C13.776 9.51184 13.8453 9.465 13.9035 9.40602C13.9616 9.34704 14.0075 9.27709 14.0383 9.20023C14.0692 9.12338 14.0845 9.04115 14.0834 8.95833C14.0834 7.76347 13.3005 6.74694 12.1994 6.06934C11.0984 5.39174 9.64147 5 8.04171 5ZM8.04171 8.125C7.71019 8.125 7.39224 8.2128 7.15782 8.36908C6.92341 8.52536 6.79171 8.73732 6.79171 8.95833C6.79171 9.17935 6.92341 9.39131 7.15782 9.54759C7.39224 9.70387 7.71019 9.79167 8.04171 9.79167C8.37323 9.79167 8.69117 9.70387 8.92559 9.54759C9.16001 9.39131 9.2917 9.17935 9.2917 8.95833C9.2917 8.73732 9.16001 8.52536 8.92559 8.36908C8.69117 8.2128 8.37323 8.125 8.04171 8.125ZM3.25005 11.3818C3.44642 11.5495 3.65632 11.7072 3.884 11.8473C4.78434 12.4014 5.95593 12.7003 7.2157 12.8141C7.21045 12.848 7.208 12.8823 7.20837 12.9167V15C7.2072 15.0828 7.2225 15.165 7.25339 15.2419C7.28427 15.3188 7.33012 15.3887 7.38827 15.4477C7.44643 15.5067 7.51572 15.5535 7.59213 15.5855C7.66854 15.6174 7.75055 15.6339 7.83337 15.6339C7.9162 15.6339 7.9982 15.6174 8.07461 15.5855C8.15102 15.5535 8.22032 15.5067 8.27847 15.4477C8.33662 15.3887 8.38247 15.3188 8.41336 15.2419C8.44424 15.165 8.45954 15.0828 8.45837 15V12.9167H10.5417V15C10.5405 15.0828 10.5558 15.165 10.5867 15.2419C10.6176 15.3188 10.6634 15.3887 10.7216 15.4477C10.7798 15.5067 10.849 15.5535 10.9255 15.5855C11.0019 15.6174 11.0839 15.6339 11.1667 15.6339C11.2495 15.6339 11.3315 15.6174 11.4079 15.5855C11.4843 15.5535 11.5536 15.5067 11.6118 15.4477C11.6699 15.3887 11.7158 15.3188 11.7467 15.2419C11.7776 15.165 11.7929 15.0828 11.7917 15V12.9167H14.0834V15C14.0822 15.0828 14.0975 15.165 14.1284 15.2419C14.1593 15.3188 14.2051 15.3887 14.2633 15.4477C14.3214 15.5067 14.3907 15.5535 14.4671 15.5855C14.5435 15.6174 14.6255 15.6339 14.7084 15.6339C14.7912 15.6339 14.8732 15.6174 14.9496 15.5855C15.026 15.5535 15.0953 15.5067 15.1535 15.4477C15.2116 15.3887 15.2575 15.3188 15.2883 15.2419C15.3192 15.165 15.3345 15.0828 15.3334 15V12.9167H17.4167V15C17.4155 15.0828 17.4308 15.165 17.4617 15.2419C17.4926 15.3188 17.5384 15.3887 17.5966 15.4477C17.6547 15.5067 17.724 15.5535 17.8004 15.5855C17.8768 15.6174 17.9588 15.6339 18.0417 15.6339C18.1245 15.6339 18.2065 15.6174 18.2829 15.5855C18.3593 15.5535 18.4286 15.5067 18.4868 15.4477C18.5449 15.3887 18.5908 15.3188 18.6217 15.2419C18.6525 15.165 18.6678 15.0828 18.6667 15V12.9167H20.75V18.75H7.20837C5.01492 18.75 3.25005 16.9851 3.25005 14.7917V11.3818Z" fill="#41342D"/>
</svg>
