<svg width="98" height="21" viewBox="0 0 98 21" fill="none" xmlns="http://www.w3.org/2000/svg">
<mask id="mask0_9122_54746" style="mask-type:alpha" maskUnits="userSpaceOnUse" x="0" y="0" width="98" height="21">
<path d="M4.81624 16.5294C5.77949 16.5294 6.70783 16.2954 7.60128 15.8275C8.03405 15.6007 8.38305 15.3171 8.64829 14.9768C8.91353 14.6366 9.04615 14.2006 9.04615 13.6689C9.04615 13.1372 8.87165 12.7508 8.52265 12.5098C8.28533 12.9068 7.88398 13.2294 7.31859 13.4775C6.75321 13.7256 6.20527 13.8497 5.67479 13.8497C5.1443 13.8497 4.73597 13.7256 4.44979 13.4775C4.1636 13.2294 4.02051 12.7792 4.02051 12.127C4.02051 11.8151 4.04843 11.4748 4.10427 11.1062C8.34815 11.1062 10.4701 9.85849 10.4701 7.36312C10.4701 6.66838 10.2258 6.10834 9.73718 5.683C9.08105 5.11587 8.08989 4.8323 6.76368 4.8323C4.62778 4.8323 2.94558 5.53413 1.71709 6.93777C0.572365 8.24217 0 9.96483 0 12.1057C0 13.481 0.369943 14.5444 1.10983 15.2958C1.48675 15.6928 1.95791 15.9977 2.52329 16.2103C3.08868 16.423 3.85299 16.5294 4.81624 16.5294ZM4.25085 10.1917C4.54402 8.547 4.94886 7.37021 5.46538 6.6613C5.67479 6.34937 5.8807 6.14733 6.08312 6.05518C6.28554 5.96302 6.50541 5.91694 6.74274 5.91694C6.98006 5.91694 7.15805 6.00555 7.27671 6.18278C7.39537 6.36001 7.4547 6.61167 7.4547 6.93777C7.4547 7.88771 7.16852 8.66043 6.59615 9.25591C6.02379 9.87976 5.24202 10.1917 4.25085 10.1917ZM19.5581 16.5294C20.1305 16.5294 20.6714 16.3876 21.181 16.104C21.6905 15.8204 22.0151 15.4376 22.1547 14.9556C21.8755 14.9272 21.6417 14.8138 21.4532 14.6153C21.2647 14.4168 21.1705 14.1616 21.1705 13.8497C21.1705 13.5377 21.1915 13.2967 21.2333 13.1266L22.7829 4.8323L19.2021 5.19385C18.6856 4.95282 18.0714 4.8323 17.3594 4.8323C15.3771 4.8323 13.7856 5.4845 12.585 6.7889C11.9987 7.41274 11.545 8.1571 11.2239 9.02197C10.9028 9.88685 10.7423 10.7943 10.7423 11.7442C10.7423 12.6941 10.8156 13.4598 10.9622 14.0411C11.1088 14.6224 11.3426 15.0973 11.6637 15.466C11.9987 15.8346 12.4245 16.104 12.941 16.2741C13.4576 16.4443 14.0334 16.5294 14.6686 16.5294C15.3038 16.5294 15.8587 16.4159 16.3333 16.1891C16.808 15.9622 17.157 15.6716 17.3803 15.3171C17.492 15.6857 17.7398 15.9799 18.1237 16.1997C18.5076 16.4195 18.9858 16.5294 19.5581 16.5294ZM15.4538 15.1682C15.2305 15.1682 15.056 15.0477 14.9303 14.8067C14.8047 14.5657 14.7419 14.034 14.7419 13.2116C14.7419 12.3893 14.8571 11.4004 15.0874 10.2448C15.3177 9.08932 15.5027 8.29534 15.6423 7.8629C15.7819 7.43046 15.9285 7.08664 16.0821 6.83143C16.2496 6.57623 16.4345 6.39191 16.637 6.27848C16.8394 6.16506 17.1116 6.10834 17.4536 6.10834C17.7957 6.10834 18.1132 6.23595 18.4064 6.49116L17.2966 12.7225C17.1709 13.4881 16.9441 14.0871 16.616 14.5196C16.288 14.952 15.9006 15.1682 15.4538 15.1682ZM26.259 16.5294C27.9342 16.5294 29.2953 16.1324 30.3423 15.3384C30.8309 14.9697 31.2113 14.5231 31.4835 13.9985C31.7558 13.4739 31.8919 12.9245 31.8919 12.3503C31.8919 11.7761 31.7348 11.2799 31.4207 10.8616C31.1066 10.4433 30.5377 9.979 29.7141 9.46859C28.8905 8.95817 28.3181 8.547 27.997 8.23508C27.7736 8.00823 27.662 7.75302 27.662 7.46946C27.662 7.07246 27.8051 6.71446 28.0912 6.39545C28.3774 6.07644 28.695 5.91694 29.044 5.91694C29.7141 5.91694 30.0491 6.3352 30.0491 7.17171C30.0491 7.62542 29.9514 8.11457 29.756 8.63916C29.9793 8.79512 30.3214 8.8731 30.7821 8.8731C31.4521 8.8731 31.9722 8.69587 32.3421 8.34142C32.712 7.98696 32.897 7.49781 32.897 6.87397C32.897 6.25013 32.6283 5.75389 32.0908 5.38525C31.5533 5.01662 30.8309 4.8323 29.9235 4.8323C28.1506 4.8323 26.7546 5.22929 25.7355 6.02327C25.2469 6.40609 24.8699 6.86688 24.6047 7.40565C24.3395 7.94443 24.2068 8.49738 24.2068 9.06451C24.2068 9.63164 24.3953 10.1421 24.7722 10.5958C24.9956 10.851 25.5959 11.3047 26.5731 11.9569C27.7736 12.7225 28.3739 13.4669 28.3739 14.1899C28.3739 14.5586 28.2622 14.8492 28.0389 15.0619C27.8155 15.2746 27.5363 15.3809 27.2013 15.3809C26.4195 15.3809 26.0286 14.913 26.0286 13.9773C26.0286 13.6653 26.1194 13.2754 26.3009 12.8076C25.9379 12.5807 25.4632 12.4673 24.8769 12.4673C24.2906 12.4673 23.7985 12.6303 23.4006 12.9564C23.0028 13.2825 22.8038 13.7221 22.8038 14.275C22.8038 14.828 23.1528 15.3384 23.8509 15.8063C24.5489 16.2883 25.3516 16.5294 26.259 16.5294ZM37.2107 20.3787C38.1181 20.3787 38.9243 20.2689 39.6293 20.0491C40.3343 19.8293 40.959 19.443 41.5034 18.89C42.5644 17.8125 43.3531 15.9126 43.8697 13.1904L45.4402 4.8323L41.315 5.25765L40.1632 11.1487C40.0376 11.7867 39.8457 12.2901 39.5874 12.6587C39.3291 13.0273 39.0499 13.2116 38.7498 13.2116C38.4496 13.2116 38.2158 13.1549 38.0483 13.0415C37.9506 12.9564 37.8668 12.8466 37.797 12.7119C37.7272 12.5772 37.6923 12.407 37.6923 12.2014C37.6923 11.9959 37.7132 11.7938 37.7551 11.5953C37.797 11.3968 37.8319 11.2054 37.8598 11.0211L39.0115 4.8323L34.7607 5.25765L33.7765 10.5745C33.6927 10.9998 33.6509 11.4181 33.6509 11.8293C33.6509 12.2404 33.7067 12.6303 33.8184 12.999C34.1674 14.2325 35.1725 14.8492 36.8338 14.8492C38.16 14.8492 39.186 14.4664 39.912 13.7008C39.7724 14.3813 39.6258 15.0406 39.4722 15.6787C38.9417 17.8337 38.2158 18.9113 37.2944 18.9113C36.736 18.9113 36.4568 18.5994 36.4568 17.9755C36.4568 17.5077 36.6174 17.1319 36.9385 16.8484C36.8128 16.6499 36.6174 16.4726 36.3521 16.3167C35.9054 16.0615 35.3889 15.9339 34.8026 15.9339C34.1325 15.9339 33.5811 16.1005 33.1483 16.4336C32.7155 16.7668 32.4991 17.2241 32.4991 17.8054C32.4991 18.5852 32.9179 19.209 33.7556 19.6769C34.5932 20.1448 35.7449 20.3787 37.2107 20.3787ZM44.5397 20.3575L48.7906 19.9321L49.4397 16.3167C49.7189 16.4585 50.2564 16.5294 51.0521 16.5294C51.8479 16.5294 52.6471 16.3663 53.4498 16.0402C54.2525 15.7141 54.947 15.2533 55.5333 14.6578C56.1197 14.0482 56.5734 13.3038 56.8944 12.4248C57.2155 11.5457 57.3761 10.4894 57.3761 9.25591C57.3761 8.02241 57.055 7.00157 56.4128 6.19341C55.6869 5.30018 54.6399 4.85357 53.2718 4.85357C52.0573 4.85357 51.1568 5.3569 50.5705 6.36355L50.8427 4.8961L47.4295 5.25765L44.5397 20.3575ZM50.6752 15.2958C50.3122 15.2958 49.9842 15.1682 49.691 14.913L50.8009 8.68169C51.0801 6.99448 51.6454 6.15088 52.497 6.15088C52.7762 6.15088 52.9891 6.25722 53.1357 6.46989C53.2823 6.68256 53.3556 7.12209 53.3556 7.78847C53.3556 8.45484 53.3067 9.12831 53.209 9.80886C52.8739 12.1341 52.497 13.6795 52.0782 14.4451C51.9246 14.7287 51.7432 14.9414 51.5338 15.0832C51.3244 15.225 51.0382 15.2958 50.6752 15.2958ZM60.4962 16.5294C61.8782 16.5294 62.7856 15.9977 63.2184 14.9343C62.646 14.9059 62.3598 14.4877 62.3598 13.6795C62.3598 13.3109 62.4785 12.602 62.7158 11.5528L64.747 0.791504L60.4962 1.21685L58.9675 9.38352C58.4789 11.7087 58.2346 13.403 58.2346 14.4664C58.2346 14.9343 58.4161 15.3738 58.7791 15.785C59.2258 16.2812 59.7981 16.5294 60.4962 16.5294ZM73.3744 16.5294C73.9467 16.5294 74.4877 16.3876 74.9972 16.104C75.5068 15.8204 75.8313 15.4376 75.9709 14.9556C75.6917 14.9272 75.4579 14.8138 75.2694 14.6153C75.081 14.4168 74.9868 14.1616 74.9868 13.8497C74.9868 13.5377 75.0077 13.2967 75.0496 13.1266L76.5991 4.8323L73.0184 5.19385C72.5019 4.95282 71.8876 4.8323 71.1756 4.8323C69.1933 4.8323 67.6019 5.4845 66.4013 6.7889C65.815 7.41274 65.3613 8.1571 65.0402 9.02197C64.7191 9.88685 64.5585 10.7943 64.5585 11.7442C64.5585 12.6941 64.6318 13.4598 64.7784 14.0411C64.925 14.6224 65.1588 15.0973 65.4799 15.466C65.815 15.8346 66.2407 16.104 66.7573 16.2741C67.2738 16.4443 67.8496 16.5294 68.4848 16.5294C69.12 16.5294 69.6749 16.4159 70.1496 16.1891C70.6242 15.9622 70.9732 15.6716 71.1966 15.3171C71.3083 15.6857 71.5561 15.9799 71.94 16.1997C72.3239 16.4195 72.802 16.5294 73.3744 16.5294ZM69.2701 15.1682C69.0467 15.1682 68.8722 15.0477 68.7466 14.8067C68.6209 14.5657 68.5581 14.034 68.5581 13.2116C68.5581 12.3893 68.6733 11.4004 68.9036 10.2448C69.134 9.08932 69.3189 8.29534 69.4585 7.8629C69.5982 7.43046 69.7447 7.08664 69.8983 6.83143C70.0658 6.57623 70.2508 6.39191 70.4532 6.27848C70.6556 6.16506 70.9278 6.10834 71.2699 6.10834C71.6119 6.10834 71.9295 6.23595 72.2226 6.49116L71.1128 12.7225C70.9872 13.4881 70.7603 14.0871 70.4323 14.5196C70.1042 14.952 69.7168 15.1682 69.2701 15.1682ZM86.1688 16.5294C86.797 16.5294 87.3519 16.3876 87.8335 16.104C88.3152 15.8204 88.6258 15.4376 88.7654 14.9556C88.4862 14.9272 88.2523 14.8138 88.0639 14.6153C87.8754 14.4168 87.7812 14.1439 87.7812 13.7965C87.7812 13.4491 87.8859 12.8147 88.0953 11.8931C88.542 9.83722 88.7654 8.36977 88.7654 7.49072C88.7654 6.55496 88.5595 5.87795 88.1477 5.45969C87.7358 5.04143 87.0413 4.8323 86.0641 4.8323C84.0538 4.8323 82.7207 5.52704 82.0645 6.9165L82.3996 4.8323L78.9654 5.23638L76.7876 16.5294L80.9966 16.104L82.2321 9.63873C82.6509 7.52617 83.2581 6.46989 84.0538 6.46989C84.5285 6.46989 84.7658 6.88106 84.7658 7.7034C84.7658 8.11456 84.5774 9.24174 84.2004 11.0849L83.8235 13.0415C83.7118 13.6653 83.649 14.1616 83.635 14.5302C83.635 15.863 84.4796 16.5294 86.1688 16.5294ZM92.6393 16.5294C93.3513 16.5294 93.9585 16.3876 94.4611 16.104C94.9637 15.8204 95.2848 15.4376 95.4244 14.9556C94.838 14.8138 94.5449 14.4026 94.5449 13.7221C94.5449 13.4243 94.6356 12.8359 94.8171 11.9569L95.885 6.21468H97.4974L97.6859 5.25765H96.0526L96.5551 2.93951H95.55C93.9306 4.18719 92.2833 5.06624 90.6081 5.57666L90.5244 6.21468H91.7598L90.65 11.9569C90.4546 12.921 90.3568 13.5945 90.3568 13.9773C90.3568 14.7712 90.5593 15.3951 90.9641 15.8488C91.3689 16.3025 91.9273 16.5294 92.6393 16.5294Z" fill="white"/>
</mask>
<g mask="url(#mask0_9122_54746)">
<path d="M4.81624 16.5294C5.77949 16.5294 6.70783 16.2954 7.60128 15.8275C8.03405 15.6007 8.38305 15.3171 8.64829 14.9768C8.91353 14.6366 9.04615 14.2006 9.04615 13.6689C9.04615 13.1372 8.87165 12.7508 8.52265 12.5098C8.28533 12.9068 7.88398 13.2294 7.31859 13.4775C6.75321 13.7256 6.20527 13.8497 5.67479 13.8497C5.1443 13.8497 4.73597 13.7256 4.44979 13.4775C4.1636 13.2294 4.02051 12.7792 4.02051 12.127C4.02051 11.8151 4.04843 11.4748 4.10427 11.1062C8.34815 11.1062 10.4701 9.85849 10.4701 7.36312C10.4701 6.66838 10.2258 6.10834 9.73718 5.683C9.08105 5.11587 8.08989 4.8323 6.76368 4.8323C4.62778 4.8323 2.94558 5.53413 1.71709 6.93777C0.572365 8.24217 0 9.96483 0 12.1057C0 13.481 0.369943 14.5444 1.10983 15.2958C1.48675 15.6928 1.95791 15.9977 2.52329 16.2103C3.08868 16.423 3.85299 16.5294 4.81624 16.5294ZM4.25085 10.1917C4.54402 8.547 4.94886 7.37021 5.46538 6.6613C5.67479 6.34937 5.8807 6.14733 6.08312 6.05518C6.28554 5.96302 6.50541 5.91694 6.74274 5.91694C6.98006 5.91694 7.15805 6.00555 7.27671 6.18278C7.39537 6.36001 7.4547 6.61167 7.4547 6.93777C7.4547 7.88771 7.16852 8.66043 6.59615 9.25591C6.02379 9.87976 5.24202 10.1917 4.25085 10.1917ZM19.5581 16.5294C20.1305 16.5294 20.6714 16.3876 21.181 16.104C21.6905 15.8204 22.0151 15.4376 22.1547 14.9556C21.8755 14.9272 21.6417 14.8138 21.4532 14.6153C21.2647 14.4168 21.1705 14.1616 21.1705 13.8497C21.1705 13.5377 21.1915 13.2967 21.2333 13.1266L22.7829 4.8323L19.2021 5.19385C18.6856 4.95282 18.0714 4.8323 17.3594 4.8323C15.3771 4.8323 13.7856 5.4845 12.585 6.7889C11.9987 7.41274 11.545 8.1571 11.2239 9.02197C10.9028 9.88685 10.7423 10.7943 10.7423 11.7442C10.7423 12.6941 10.8156 13.4598 10.9622 14.0411C11.1088 14.6224 11.3426 15.0973 11.6637 15.466C11.9987 15.8346 12.4245 16.104 12.941 16.2741C13.4576 16.4443 14.0334 16.5294 14.6686 16.5294C15.3038 16.5294 15.8587 16.4159 16.3333 16.1891C16.808 15.9622 17.157 15.6716 17.3803 15.3171C17.492 15.6857 17.7398 15.9799 18.1237 16.1997C18.5076 16.4195 18.9858 16.5294 19.5581 16.5294ZM15.4538 15.1682C15.2305 15.1682 15.056 15.0477 14.9303 14.8067C14.8047 14.5657 14.7419 14.034 14.7419 13.2116C14.7419 12.3893 14.8571 11.4004 15.0874 10.2448C15.3177 9.08932 15.5027 8.29534 15.6423 7.8629C15.7819 7.43046 15.9285 7.08664 16.0821 6.83143C16.2496 6.57623 16.4345 6.39191 16.637 6.27848C16.8394 6.16506 17.1116 6.10834 17.4536 6.10834C17.7957 6.10834 18.1132 6.23595 18.4064 6.49116L17.2966 12.7225C17.1709 13.4881 16.9441 14.0871 16.616 14.5196C16.288 14.952 15.9006 15.1682 15.4538 15.1682ZM26.259 16.5294C27.9342 16.5294 29.2953 16.1324 30.3423 15.3384C30.8309 14.9697 31.2113 14.5231 31.4835 13.9985C31.7558 13.4739 31.8919 12.9245 31.8919 12.3503C31.8919 11.7761 31.7348 11.2799 31.4207 10.8616C31.1066 10.4433 30.5377 9.979 29.7141 9.46859C28.8905 8.95817 28.3181 8.547 27.997 8.23508C27.7736 8.00823 27.662 7.75302 27.662 7.46946C27.662 7.07246 27.8051 6.71446 28.0912 6.39545C28.3774 6.07644 28.695 5.91694 29.044 5.91694C29.7141 5.91694 30.0491 6.3352 30.0491 7.17171C30.0491 7.62542 29.9514 8.11457 29.756 8.63916C29.9793 8.79512 30.3214 8.8731 30.7821 8.8731C31.4521 8.8731 31.9722 8.69587 32.3421 8.34142C32.712 7.98696 32.897 7.49781 32.897 6.87397C32.897 6.25013 32.6283 5.75389 32.0908 5.38525C31.5533 5.01662 30.8309 4.8323 29.9235 4.8323C28.1506 4.8323 26.7546 5.22929 25.7355 6.02327C25.2469 6.40609 24.8699 6.86688 24.6047 7.40565C24.3395 7.94443 24.2068 8.49738 24.2068 9.06451C24.2068 9.63164 24.3953 10.1421 24.7722 10.5958C24.9956 10.851 25.5959 11.3047 26.5731 11.9569C27.7736 12.7225 28.3739 13.4669 28.3739 14.1899C28.3739 14.5586 28.2622 14.8492 28.0389 15.0619C27.8155 15.2746 27.5363 15.3809 27.2013 15.3809C26.4195 15.3809 26.0286 14.913 26.0286 13.9773C26.0286 13.6653 26.1194 13.2754 26.3009 12.8076C25.9379 12.5807 25.4632 12.4673 24.8769 12.4673C24.2906 12.4673 23.7985 12.6303 23.4006 12.9564C23.0028 13.2825 22.8038 13.7221 22.8038 14.275C22.8038 14.828 23.1528 15.3384 23.8509 15.8063C24.5489 16.2883 25.3516 16.5294 26.259 16.5294ZM37.2107 20.3787C38.1181 20.3787 38.9243 20.2689 39.6293 20.0491C40.3343 19.8293 40.959 19.443 41.5034 18.89C42.5644 17.8125 43.3531 15.9126 43.8697 13.1904L45.4402 4.8323L41.315 5.25765L40.1632 11.1487C40.0376 11.7867 39.8457 12.2901 39.5874 12.6587C39.3291 13.0273 39.0499 13.2116 38.7498 13.2116C38.4496 13.2116 38.2158 13.1549 38.0483 13.0415C37.9506 12.9564 37.8668 12.8466 37.797 12.7119C37.7272 12.5772 37.6923 12.407 37.6923 12.2014C37.6923 11.9959 37.7132 11.7938 37.7551 11.5953C37.797 11.3968 37.8319 11.2054 37.8598 11.0211L39.0115 4.8323L34.7607 5.25765L33.7765 10.5745C33.6927 10.9998 33.6509 11.4181 33.6509 11.8293C33.6509 12.2404 33.7067 12.6303 33.8184 12.999C34.1674 14.2325 35.1725 14.8492 36.8338 14.8492C38.16 14.8492 39.186 14.4664 39.912 13.7008C39.7724 14.3813 39.6258 15.0406 39.4722 15.6787C38.9417 17.8337 38.2158 18.9113 37.2944 18.9113C36.736 18.9113 36.4568 18.5994 36.4568 17.9755C36.4568 17.5077 36.6174 17.1319 36.9385 16.8484C36.8128 16.6499 36.6174 16.4726 36.3521 16.3167C35.9054 16.0615 35.3889 15.9339 34.8026 15.9339C34.1325 15.9339 33.5811 16.1005 33.1483 16.4336C32.7155 16.7668 32.4991 17.2241 32.4991 17.8054C32.4991 18.5852 32.9179 19.209 33.7556 19.6769C34.5932 20.1448 35.7449 20.3787 37.2107 20.3787ZM44.5397 20.3575L48.7906 19.9321L49.4397 16.3167C49.7189 16.4585 50.2564 16.5294 51.0521 16.5294C51.8479 16.5294 52.6471 16.3663 53.4498 16.0402C54.2525 15.7141 54.947 15.2533 55.5333 14.6578C56.1197 14.0482 56.5734 13.3038 56.8944 12.4248C57.2155 11.5457 57.3761 10.4894 57.3761 9.25591C57.3761 8.02241 57.055 7.00157 56.4128 6.19341C55.6869 5.30018 54.6399 4.85357 53.2718 4.85357C52.0573 4.85357 51.1568 5.3569 50.5705 6.36355L50.8427 4.8961L47.4295 5.25765L44.5397 20.3575ZM50.6752 15.2958C50.3122 15.2958 49.9842 15.1682 49.691 14.913L50.8009 8.68169C51.0801 6.99448 51.6454 6.15088 52.497 6.15088C52.7762 6.15088 52.9891 6.25722 53.1357 6.46989C53.2823 6.68256 53.3556 7.12209 53.3556 7.78847C53.3556 8.45484 53.3067 9.12831 53.209 9.80886C52.8739 12.1341 52.497 13.6795 52.0782 14.4451C51.9246 14.7287 51.7432 14.9414 51.5338 15.0832C51.3244 15.225 51.0382 15.2958 50.6752 15.2958ZM60.4962 16.5294C61.8782 16.5294 62.7856 15.9977 63.2184 14.9343C62.646 14.9059 62.3598 14.4877 62.3598 13.6795C62.3598 13.3109 62.4785 12.602 62.7158 11.5528L64.747 0.791504L60.4962 1.21685L58.9675 9.38352C58.4789 11.7087 58.2346 13.403 58.2346 14.4664C58.2346 14.9343 58.4161 15.3738 58.7791 15.785C59.2258 16.2812 59.7981 16.5294 60.4962 16.5294ZM73.3744 16.5294C73.9467 16.5294 74.4877 16.3876 74.9972 16.104C75.5068 15.8204 75.8313 15.4376 75.9709 14.9556C75.6917 14.9272 75.4579 14.8138 75.2694 14.6153C75.081 14.4168 74.9868 14.1616 74.9868 13.8497C74.9868 13.5377 75.0077 13.2967 75.0496 13.1266L76.5991 4.8323L73.0184 5.19385C72.5019 4.95282 71.8876 4.8323 71.1756 4.8323C69.1933 4.8323 67.6019 5.4845 66.4013 6.7889C65.815 7.41274 65.3613 8.1571 65.0402 9.02197C64.7191 9.88685 64.5585 10.7943 64.5585 11.7442C64.5585 12.6941 64.6318 13.4598 64.7784 14.0411C64.925 14.6224 65.1588 15.0973 65.4799 15.466C65.815 15.8346 66.2407 16.104 66.7573 16.2741C67.2738 16.4443 67.8496 16.5294 68.4848 16.5294C69.12 16.5294 69.6749 16.4159 70.1496 16.1891C70.6242 15.9622 70.9732 15.6716 71.1966 15.3171C71.3083 15.6857 71.5561 15.9799 71.94 16.1997C72.3239 16.4195 72.802 16.5294 73.3744 16.5294ZM69.2701 15.1682C69.0467 15.1682 68.8722 15.0477 68.7466 14.8067C68.6209 14.5657 68.5581 14.034 68.5581 13.2116C68.5581 12.3893 68.6733 11.4004 68.9036 10.2448C69.134 9.08932 69.3189 8.29534 69.4585 7.8629C69.5982 7.43046 69.7447 7.08664 69.8983 6.83143C70.0658 6.57623 70.2508 6.39191 70.4532 6.27848C70.6556 6.16506 70.9278 6.10834 71.2699 6.10834C71.6119 6.10834 71.9295 6.23595 72.2226 6.49116L71.1128 12.7225C70.9872 13.4881 70.7603 14.0871 70.4323 14.5196C70.1042 14.952 69.7168 15.1682 69.2701 15.1682ZM86.1688 16.5294C86.797 16.5294 87.3519 16.3876 87.8335 16.104C88.3152 15.8204 88.6258 15.4376 88.7654 14.9556C88.4862 14.9272 88.2523 14.8138 88.0639 14.6153C87.8754 14.4168 87.7812 14.1439 87.7812 13.7965C87.7812 13.4491 87.8859 12.8147 88.0953 11.8931C88.542 9.83722 88.7654 8.36977 88.7654 7.49072C88.7654 6.55496 88.5595 5.87795 88.1477 5.45969C87.7358 5.04143 87.0413 4.8323 86.0641 4.8323C84.0538 4.8323 82.7207 5.52704 82.0645 6.9165L82.3996 4.8323L78.9654 5.23638L76.7876 16.5294L80.9966 16.104L82.2321 9.63873C82.6509 7.52617 83.2581 6.46989 84.0538 6.46989C84.5285 6.46989 84.7658 6.88106 84.7658 7.7034C84.7658 8.11456 84.5774 9.24174 84.2004 11.0849L83.8235 13.0415C83.7118 13.6653 83.649 14.1616 83.635 14.5302C83.635 15.863 84.4796 16.5294 86.1688 16.5294ZM92.6393 16.5294C93.3513 16.5294 93.9585 16.3876 94.4611 16.104C94.9637 15.8204 95.2848 15.4376 95.4244 14.9556C94.838 14.8138 94.5449 14.4026 94.5449 13.7221C94.5449 13.4243 94.6356 12.8359 94.8171 11.9569L95.885 6.21468H97.4974L97.6859 5.25765H96.0526L96.5551 2.93951H95.55C93.9306 4.18719 92.2833 5.06624 90.6081 5.57666L90.5244 6.21468H91.7598L90.65 11.9569C90.4546 12.921 90.3568 13.5945 90.3568 13.9773C90.3568 14.7712 90.5593 15.3951 90.9641 15.8488C91.3689 16.3025 91.9273 16.5294 92.6393 16.5294Z" fill="#47634E"/>
</g>
</svg>
