<svg width="49" height="50" viewBox="0 0 49 50" fill="none" xmlns="http://www.w3.org/2000/svg">
<rect y="0.5" width="49" height="49" rx="24.5" fill="#F5F1EA"/>
<path d="M30.698 14.8413C31.0499 14.7997 31.4132 14.7827 31.7848 14.7912C32.8995 14.8169 34.0924 15.0757 35.3062 15.6138C35.4424 15.6743 35.5595 15.7708 35.6448 15.8929C35.7302 16.0151 35.7806 16.1582 35.7906 16.3069C35.8006 16.4556 35.7697 16.6042 35.7015 16.7367C35.6332 16.8691 35.53 16.9804 35.4031 17.0586C34.7795 17.4422 34.5277 18.1524 34.3739 19.1213C34.2201 20.0903 34.2573 21.1764 33.8241 22.1537C33.2749 23.3924 32.2864 24.545 30.747 24.8057C30.6396 24.8271 30.529 24.8268 30.4218 24.8047C30.3145 24.7826 30.2128 24.7392 30.1226 24.6771C30.0325 24.615 29.9557 24.5354 29.8968 24.4431C29.838 24.3507 29.7982 24.2475 29.78 24.1396C29.7617 24.0316 29.7653 23.9211 29.7905 23.8145C29.8158 23.708 29.8621 23.6076 29.9269 23.5193C29.9916 23.431 30.0734 23.3566 30.1674 23.3004C30.2614 23.2443 30.3658 23.2076 30.4742 23.1926C31.3765 23.0398 31.9041 22.4475 32.3282 21.491C32.5152 21.069 32.5786 19.9923 32.7575 18.8646C32.8673 18.1728 33.0827 17.4213 33.4938 16.7602C31.2529 16.1359 29.3431 16.6042 28.2335 17.6094C27.0246 18.7046 26.6805 20.2826 27.786 22.0344C28.7216 20.5615 29.9425 18.6174 29.9425 18.6174C30.003 18.5259 30.0812 18.4476 30.1725 18.387C30.2638 18.3263 30.3663 18.2847 30.474 18.2644C30.5818 18.2442 30.6924 18.2458 30.7995 18.2691C30.9066 18.2925 31.0079 18.3371 31.0974 18.4003C31.1869 18.4636 31.2628 18.5442 31.3206 18.6373C31.3784 18.7304 31.4169 18.8342 31.4338 18.9425C31.4507 19.0508 31.4457 19.1614 31.419 19.2677C31.3924 19.374 31.3446 19.4739 31.2786 19.5614C31.2786 19.5614 29.7141 21.7782 27.9863 24.7769C26.2638 27.7664 24.3989 31.5437 23.783 34.5005C23.7595 34.651 23.6945 34.792 23.5953 34.9076C23.4961 35.0232 23.3667 35.1088 23.2215 35.1547C23.199 35.1618 23.1762 35.1678 23.1533 35.1729L23.1426 35.1761L23.1352 35.1771C23.1147 35.1811 23.0941 35.1843 23.0734 35.1867L23.0584 35.1888C23.0386 35.191 23.0187 35.1924 22.9988 35.1931C22.9892 35.1936 22.9796 35.194 22.97 35.1942C22.9561 35.1938 22.9423 35.1931 22.9285 35.192C22.9124 35.1914 22.8965 35.1904 22.8805 35.1888L22.8603 35.1856C22.8374 35.1824 22.8146 35.1781 22.7921 35.1729C22.6204 35.1343 22.4657 35.0415 22.3509 34.9081C22.2361 34.7747 22.1674 34.6079 22.1549 34.4324C22.1378 34.3279 17.8191 27.0767 16.3162 23.3548C16.1469 22.9356 16.3791 22.474 16.808 22.331C17.237 22.188 17.7004 22.4204 17.8755 22.8373C18.9578 25.4142 21.3816 29.0331 22.8805 31.7828C23.7946 29.385 25.3675 26.0464 26.5692 23.9608C26.7049 23.7254 26.695 23.776 26.8281 23.5506C26.7735 23.5065 26.7248 23.4557 26.6832 23.3993C24.8414 20.9435 25.2923 18.0662 27.135 16.3969C28.0563 15.5622 29.2901 15.0078 30.698 14.8413Z" fill="#41342D"/>
</svg>
