<svg width="25" height="24" viewBox="0 0 25 24" fill="none" xmlns="http://www.w3.org/2000/svg">
<path d="M2.79388 8.00008C2.6945 7.99867 2.59583 8.01703 2.5036 8.05409C2.41138 8.09115 2.32744 8.14617 2.25666 8.21595C2.18588 8.28574 2.12968 8.36889 2.09132 8.46059C2.05296 8.55228 2.0332 8.65068 2.0332 8.75007C2.0332 8.84947 2.05296 8.94787 2.09132 9.03956C2.12968 9.13126 2.18588 9.21441 2.25666 9.2842C2.32744 9.35398 2.41138 9.409 2.5036 9.44606C2.59583 9.48312 2.6945 9.50148 2.79388 9.50007H21.2939C21.3933 9.50148 21.4919 9.48312 21.5842 9.44606C21.6764 9.409 21.7603 9.35398 21.8311 9.2842C21.9019 9.21441 21.9581 9.13126 21.9965 9.03956C22.0348 8.94787 22.0546 8.84947 22.0546 8.75007C22.0546 8.65068 22.0348 8.55228 21.9965 8.46059C21.9581 8.36889 21.9019 8.28574 21.8311 8.21595C21.7603 8.14617 21.6764 8.09115 21.5842 8.05409C21.4919 8.01703 21.3933 7.99867 21.2939 8.00008H2.79388ZM2.79388 14.7501C2.6945 14.7487 2.59583 14.767 2.5036 14.8041C2.41138 14.8412 2.32744 14.8962 2.25666 14.966C2.18588 15.0357 2.12968 15.1189 2.09132 15.2106C2.05296 15.3023 2.0332 15.4007 2.0332 15.5001C2.0332 15.5995 2.05296 15.6979 2.09132 15.7896C2.12968 15.8813 2.18588 15.9644 2.25666 16.0342C2.32744 16.104 2.41138 16.159 2.5036 16.1961C2.59583 16.2331 2.6945 16.2515 2.79388 16.2501H21.2939C21.3933 16.2515 21.4919 16.2331 21.5842 16.1961C21.6764 16.159 21.7603 16.104 21.8311 16.0342C21.9019 15.9644 21.9581 15.8813 21.9965 15.7896C22.0348 15.6979 22.0546 15.5995 22.0546 15.5001C22.0546 15.4007 22.0348 15.3023 21.9965 15.2106C21.9581 15.1189 21.9019 15.0357 21.8311 14.966C21.7603 14.8962 21.6764 14.8412 21.5842 14.8041C21.4919 14.767 21.3933 14.7487 21.2939 14.7501H2.79388Z" fill="#41342D"/>
</svg>
