<svg width="20" height="2" viewBox="0 0 20 2" fill="none" xmlns="http://www.w3.org/2000/svg">
<path d="M1.24994 0.250075C1.15056 0.248669 1.05188 0.267031 0.959657 0.304091C0.867431 0.341151 0.78349 0.396172 0.712713 0.465955C0.641936 0.535739 0.585734 0.618892 0.547373 0.710585C0.509012 0.802278 0.489258 0.900681 0.489258 1.00007C0.489258 1.09947 0.509012 1.19787 0.547373 1.28956C0.585734 1.38126 0.641936 1.46441 0.712713 1.53419C0.78349 1.60398 0.867431 1.659 0.959657 1.69606C1.05188 1.73312 1.15056 1.75148 1.24994 1.75007H18.7499C18.8493 1.75148 18.948 1.73312 19.0402 1.69606C19.1324 1.659 19.2164 1.60398 19.2872 1.53419C19.3579 1.46441 19.4141 1.38126 19.4525 1.28956C19.4909 1.19787 19.5106 1.09947 19.5106 1.00007C19.5106 0.900681 19.4909 0.802278 19.4525 0.710585C19.4141 0.618892 19.3579 0.535739 19.2872 0.465955C19.2164 0.396172 19.1324 0.341151 19.0402 0.304091C18.948 0.267031 18.8493 0.248669 18.7499 0.250075H1.24994Z" fill="#41342D"/>
</svg>
