<svg width="24" height="24" viewBox="0 0 24 24" fill="none" xmlns="http://www.w3.org/2000/svg">
<path d="M12 2C6.48603 2 2 6.48604 2 12C2 17.514 6.48603 22 12 22C17.514 22 22 17.514 22 12C22 6.48604 17.514 2 12 2ZM12 3.5C16.7033 3.5 20.5 7.2967 20.5 12C20.5 16.7033 16.7033 20.5 12 20.5C7.29669 20.5 3.5 16.7033 3.5 12C3.5 7.2967 7.29669 3.5 12 3.5Z" fill="#41342D"/>
<circle cx="12" cy="12" r="10" fill="#F5F1EA"/>
<path d="M7.5 11.5C8.66667 12.5 10 13.5 11 15C11.5 14 13.5 11 16.5 8.5" stroke="#41342D" stroke-width="1.6" stroke-linecap="round" stroke-linejoin="round"/>
</svg>
