<svg width="24" height="24" viewBox="0 0 24 24" fill="none" xmlns="http://www.w3.org/2000/svg">
<path d="M16.2656 1.70496C16.0399 1.7009 15.8121 1.73019 15.5889 1.79578C13.1398 2.51615 6.8625 4.58689 3.99023 8.86512L3.97852 8.88172L3.96875 8.89832C3.14837 10.2688 3.03125 11.5674 3.03125 12.6005C3.03125 14.5179 3.93853 16.1431 5.11914 17.2714C5.85795 17.9774 6.70048 18.4234 7.55566 18.7235C6.49693 19.5039 5.31715 20.1231 4.02246 20.535C3.83287 20.5954 3.67502 20.7286 3.58363 20.9053C3.49225 21.082 3.47481 21.2878 3.53516 21.4774C3.5955 21.667 3.72869 21.8249 3.90542 21.9162C4.08215 22.0076 4.28795 22.0251 4.47754 21.9647C10.3016 20.1116 13.9196 14.6334 15.1143 8.98523C15.1554 8.79059 15.1176 8.58757 15.0091 8.42082C14.9006 8.25407 14.7303 8.13725 14.5356 8.09607C14.341 8.05489 14.138 8.09272 13.9712 8.20123C13.8045 8.30974 13.6877 8.48005 13.6465 8.67469C12.9424 12.0032 11.3313 15.2166 8.92773 17.5458C8.14763 17.4935 7.0436 17.0353 6.15527 16.1864C5.21463 15.2875 4.53125 14.0446 4.53125 12.6005C4.53125 11.6721 4.61292 10.7553 5.25 9.68348C7.66902 6.10369 13.6848 3.91969 16.0117 3.23523C16.3167 3.14561 16.6391 3.24947 16.8291 3.4989C19.0387 6.40122 19.9685 10.1173 19.999 12.4149V12.4159C20.0317 14.8452 19.4153 16.654 18.4609 17.8573C17.5088 19.0577 16.2227 19.6863 14.7305 19.7479C13.9832 19.7482 13.0819 19.7652 11.9551 18.9042C11.8772 18.8404 11.7873 18.7929 11.6907 18.7646C11.5941 18.7363 11.4928 18.7277 11.3929 18.7393C11.2929 18.751 11.1963 18.7826 11.1088 18.8324C11.0213 18.8822 10.9447 18.949 10.8836 19.029C10.8225 19.109 10.7781 19.2005 10.7531 19.298C10.7281 19.3955 10.723 19.497 10.738 19.5965C10.7531 19.696 10.788 19.7915 10.8407 19.8773C10.8935 19.963 10.9629 20.0372 11.0449 20.0956C12.5292 21.2297 14.0007 21.2499 14.75 21.2499H14.7646L14.7793 21.2489C16.6775 21.174 18.4224 20.3197 19.6357 18.7899C20.8491 17.2602 21.5343 15.0891 21.498 12.3954C21.4626 9.73199 20.4759 5.81339 18.0225 2.5907C17.5972 2.03228 16.9427 1.71713 16.2656 1.70496Z" fill="#41342D"/>
</svg>
