<svg width="46" height="46" viewBox="0 0 46 46" fill="none" xmlns="http://www.w3.org/2000/svg">
<path d="M0 23C0 10.2975 10.2975 0 23 0C35.7025 0 46 10.2975 46 23C46 35.7025 35.7025 46 23 46C10.2975 46 0 35.7025 0 23Z" fill="#F5F1EA"/>
<path d="M26.6286 13.0001C24.9176 12.9852 23.4182 14.1983 23.0333 15.9079L22.213 19.5524C18.7756 19.9065 15.9293 23.1869 15.9293 26.7467V27.2372C15.9293 28.941 16.6917 30.4308 17.846 31.4855C15.1318 31.4665 14.1836 30.6132 13.7696 29.8723C13.3509 29.1232 13.4762 28.3882 13.4762 28.3882C13.4976 28.2774 13.4943 28.163 13.4667 28.0537C13.439 27.9444 13.3876 27.8429 13.3164 27.7567C13.2451 27.6706 13.1558 27.6021 13.0552 27.5563C12.9545 27.5105 12.8451 27.4886 12.735 27.4922C12.5664 27.4979 12.4049 27.5631 12.2778 27.6769C12.1508 27.7907 12.0659 27.946 12.0377 28.1165C12.0377 28.1165 11.8042 29.3745 12.4997 30.6188C13.1587 31.798 14.6583 32.8702 17.4573 32.9794C17.5154 32.9937 17.5749 33.0006 17.6345 33H22.5122C22.5536 33.0003 22.5951 32.997 22.636 32.9902H25.2434H30.6145C31.5486 32.9902 32.3217 32.1973 32.3217 31.2393C32.3217 30.1671 31.7184 29.2282 30.8365 28.777C30.8928 28.8058 30.7879 28.7466 30.6803 28.6696C30.5726 28.5925 30.4277 28.484 30.2601 28.3491C29.925 28.0792 29.4996 27.7059 29.0817 27.2733C28.2459 26.4081 27.4843 25.2829 27.3898 24.4124C27.2841 23.4437 27.7337 22.3461 28.2415 21.5203C28.2785 21.46 28.9372 21.0052 29.6076 20.7474C29.9428 20.6185 30.2775 20.5089 30.5488 20.422C30.6845 20.3786 30.8042 20.3409 30.9051 20.3077C31.0056 20.2746 31.06 20.2651 31.1966 20.1963L31.1976 20.1953C31.559 20.0135 32.0272 19.7652 32.4008 19.2828C32.7746 18.7999 33 18.1134 33 17.2416C33 16.4328 32.5993 15.7334 32.0597 15.2543C31.5201 14.7751 30.8254 14.4804 30.0868 14.4804H29.4666L29.1389 14.1238C28.4862 13.4139 27.5792 13.0084 26.6286 13.0001ZM26.6162 14.5009C27.1689 14.5057 27.6953 14.7409 28.0747 15.1536L28.6187 15.7457C28.6871 15.8201 28.7697 15.8794 28.8613 15.9199C28.9528 15.9604 29.0515 15.9812 29.1513 15.9812H30.0868C30.4256 15.9812 30.8206 16.1385 31.1023 16.3886C31.384 16.6387 31.5367 16.9453 31.5367 17.2416C31.5367 17.8706 31.4068 18.1523 31.2547 18.3487C31.1027 18.5451 30.8744 18.6871 30.5526 18.8489C30.5523 18.8489 30.552 18.8489 30.5517 18.8489C30.624 18.8124 30.5439 18.8501 30.4583 18.8782C30.3727 18.9064 30.2523 18.9449 30.1125 18.9896C29.8329 19.0791 29.4715 19.1968 29.0931 19.3424C28.3364 19.6334 27.5005 19.9124 27.004 20.72C26.4045 21.6951 25.7705 23.0629 25.936 24.5795C26.0999 26.0859 27.1005 27.3545 28.0424 28.3295C28.5134 28.8172 28.9808 29.2265 29.357 29.5294C29.5451 29.6808 29.7099 29.8048 29.8438 29.9007C29.9778 29.9965 30.0456 30.0492 30.183 30.1195C30.582 30.3237 30.8584 30.7426 30.8584 31.2393C30.8584 31.3869 30.7584 31.4894 30.6145 31.4894H26.9296C26.942 31.4052 26.9554 31.3209 26.9554 31.2334C26.9554 29.9443 26.0553 28.9034 24.8805 28.6139C24.5686 26.3042 22.7054 24.4857 20.3706 24.4857H19.8828C19.7859 24.4843 19.6896 24.5027 19.5996 24.5397C19.5097 24.5768 19.4278 24.6319 19.3587 24.7017C19.2897 24.7715 19.2349 24.8547 19.1974 24.9465C19.16 25.0382 19.1408 25.1367 19.1408 25.2361C19.1408 25.3355 19.16 25.434 19.1974 25.5257C19.2349 25.6175 19.2897 25.7007 19.3587 25.7705C19.4278 25.8403 19.5097 25.8954 19.5996 25.9324C19.6896 25.9695 19.7859 25.9879 19.8828 25.9865H20.3706C22.1236 25.9865 23.5269 27.4243 23.5372 29.2196C23.5349 29.3213 23.5527 29.4223 23.5896 29.5167C23.5921 29.5236 23.5946 29.5304 23.5972 29.5372C23.5991 29.5415 23.601 29.5457 23.603 29.5499C23.6117 29.5695 23.6212 29.5888 23.6315 29.6075C23.6967 29.7297 23.7936 29.8308 23.9115 29.8996C24.0295 29.9685 24.1637 30.0023 24.2994 29.9974C24.9667 30.0105 25.4921 30.5454 25.4921 31.2334C25.4921 31.3835 25.3894 31.4894 25.2434 31.4894H21.5385C19.24 31.4894 17.3926 29.5946 17.3926 27.2372V26.7467C17.3926 23.883 20.0485 20.9838 22.8103 20.9838C22.8767 20.9836 22.9427 20.974 23.0066 20.9555C24.7788 20.8797 25.9643 20.0443 26.6019 19.188C27.2697 18.2911 27.4317 17.3647 27.4317 17.3647C27.4488 17.2677 27.4471 17.1682 27.4267 17.0719C27.4063 16.9755 27.3676 16.8843 27.3128 16.8033C27.258 16.7223 27.1882 16.6531 27.1073 16.5998C27.0265 16.5465 26.9362 16.51 26.8416 16.4925C26.747 16.475 26.6499 16.4768 26.556 16.4977C26.4621 16.5187 26.3731 16.5584 26.2941 16.6146C26.2152 16.6708 26.1478 16.7425 26.0958 16.8254C26.0439 16.9084 26.0083 17.001 25.9913 17.098C25.9913 17.098 25.8884 17.6734 25.4387 18.2773C25.1206 18.7046 24.5495 19.0494 23.7802 19.2622L24.4584 16.246C24.691 15.2132 25.5831 14.4919 26.6162 14.5009Z" fill="#41342D"/>
</svg>
