<svg width="46" height="46" viewBox="0 0 46 46" fill="none" xmlns="http://www.w3.org/2000/svg">
<path d="M0 23C0 10.2975 10.2975 0 23 0C35.7025 0 46 10.2975 46 23C46 35.7025 35.7025 46 23 46C10.2975 46 0 35.7025 0 23Z" fill="#F5F1EA"/>
<path d="M23 33C27.4183 33 30.7193 31.665 30.7193 30.0182L31 15.9818C31 14.335 27.4183 13 23 13C18.5817 13 15 14.335 15 15.9818L15.2807 30.0182C15.2807 31.665 18.5817 33 23 33Z" stroke="#41342D" stroke-width="1.3" stroke-miterlimit="10" stroke-linecap="round" stroke-linejoin="round"/>
<path d="M29 16C29 16.5523 26.3137 17 23 17C19.6863 17 17 16.5523 17 16" stroke="#41342D" stroke-width="1.3" stroke-miterlimit="10" stroke-linecap="round" stroke-linejoin="round"/>
</svg>
