<svg width="46" height="46" viewBox="0 0 46 46" fill="none" xmlns="http://www.w3.org/2000/svg">
<path d="M0 23C0 10.2975 10.2975 0 23 0C35.7025 0 46 10.2975 46 23C46 35.7025 35.7025 46 23 46C10.2975 46 0 35.7025 0 23Z" fill="#F5F1EA"/>
<path d="M24.0948 11.0003C23.8784 11.0065 23.6729 11.0951 23.5219 11.2473L21.3713 13.3571C21.3121 13.4014 21.2592 13.4533 21.214 13.5114L21.0219 13.6998C20.8657 13.8532 20.7779 14.0611 20.7779 14.2778C20.7779 14.4946 20.8657 14.7025 21.0219 14.8558L23.5219 17.3084C23.5987 17.3868 23.6907 17.4495 23.7925 17.4926C23.8942 17.5358 24.0038 17.5586 24.1146 17.5597C24.2255 17.5608 24.3355 17.5402 24.4381 17.4991C24.5408 17.458 24.634 17.3972 24.7124 17.3203C24.7908 17.2434 24.8528 17.1519 24.8947 17.0512C24.9366 16.9505 24.9576 16.8426 24.9565 16.7338C24.9553 16.6251 24.9321 16.5176 24.8881 16.4178C24.8441 16.3179 24.7803 16.2277 24.7003 16.1524L23.3635 14.8409C27.8051 15.0281 31.3333 18.5935 31.3333 22.998C31.3333 25.7644 29.9351 28.1943 27.7971 29.6754C27.7077 29.7373 27.6315 29.8159 27.5731 29.9067C27.5146 29.9975 27.4749 30.0987 27.4564 30.2045C27.4378 30.3103 27.4406 30.4187 27.4647 30.5234C27.4888 30.6282 27.5337 30.7272 27.5968 30.815C27.6599 30.9027 27.7401 30.9774 27.8326 31.0347C27.9252 31.092 28.0283 31.1309 28.1362 31.1492C28.2441 31.1674 28.3545 31.1646 28.4613 31.141C28.5681 31.1173 28.6691 31.0732 28.7585 31.0113C31.3204 29.2365 33 26.3062 33 22.998C33 17.8733 28.97 13.6592 23.8572 13.2304L24.7003 12.4033C24.8205 12.2884 24.9026 12.1407 24.9358 11.9793C24.969 11.8179 24.9517 11.6504 24.8863 11.4988C24.8209 11.3472 24.7103 11.2185 24.5691 11.1296C24.4279 11.0407 24.2626 10.9956 24.0948 11.0003ZM17.7656 14.8292C17.5781 14.8217 17.3934 14.8764 17.2415 14.9846C14.6796 16.7594 13 19.6898 13 22.998C13 28.1226 17.03 32.3367 22.1428 32.7656L21.2997 33.5926C21.2197 33.668 21.1559 33.7582 21.1119 33.858C21.0679 33.9579 21.0447 34.0653 21.0435 34.1741C21.0424 34.2829 21.0634 34.3907 21.1053 34.4914C21.1472 34.5921 21.2092 34.6836 21.2876 34.7605C21.366 34.8374 21.4592 34.8982 21.5619 34.9393C21.6645 34.9805 21.7745 35.0011 21.8854 35C21.9962 34.9989 22.1058 34.9761 22.2075 34.9329C22.3093 34.8898 22.4013 34.8271 22.4781 34.7487L24.6287 32.6389C24.6879 32.5946 24.7408 32.5427 24.786 32.4845L24.9781 32.2961C25.1343 32.1428 25.2221 31.9349 25.2221 31.7181C25.2221 31.5013 25.1343 31.2934 24.9781 31.1401L22.4781 28.6876C22.4004 28.6091 22.3075 28.5467 22.2048 28.5041C22.1021 28.4615 21.9917 28.4396 21.8802 28.4395C21.7144 28.4396 21.5523 28.4882 21.4148 28.5791C21.2772 28.67 21.1704 28.7991 21.1081 28.9498C21.0458 29.1006 21.0307 29.2662 21.0648 29.4254C21.099 29.5846 21.1807 29.7302 21.2997 29.8436L22.6365 31.155C18.1949 30.9679 14.6667 27.4025 14.6667 22.998C14.6667 20.2315 16.0649 17.8017 18.2029 16.3206C18.3473 16.2235 18.4569 16.0842 18.5161 15.9226C18.5753 15.761 18.5811 15.5852 18.5327 15.4201C18.4843 15.2551 18.3842 15.1092 18.2465 15.0031C18.1088 14.8971 17.9405 14.8362 17.7656 14.8292Z" fill="#41342D"/>
<path d="M25 23.9361C25 25.076 24.1046 26 23 26C21.8954 26 21 25.076 21 23.9361C21 21.8722 23 20 23 20C23 20 25 21.8722 25 23.9361Z" stroke="#41342D" stroke-width="1.5" stroke-linecap="round" stroke-linejoin="round"/>
</svg>
