<svg width="24" height="24" viewBox="0 0 24 24" fill="none" xmlns="http://www.w3.org/2000/svg">
<path d="M6.70312 2.00388C6.57177 2.0092 6.4403 2.01998 6.30859 2.03611C5.78177 2.1006 5.25425 2.25061 4.74707 2.47849C2.71836 3.39002 1 5.61399 1 8.80076C1.00001 8.9374 1.03735 9.07145 1.10799 9.18842C1.17862 9.30539 1.27987 9.40084 1.4008 9.46447C1.52172 9.5281 1.65773 9.55749 1.79414 9.54946C1.93055 9.54143 2.06218 9.49629 2.1748 9.41892C2.73504 9.03408 3.37534 9.09357 4.20801 9.32615C5.04067 9.55872 5.9115 10.001 6.89355 10.001C8.24553 10.001 9.60559 9.34955 10.3896 8.16501C10.444 8.08287 10.4817 7.99082 10.5005 7.89412C10.5193 7.79742 10.5189 7.69796 10.4993 7.60142C10.4797 7.50487 10.4412 7.41315 10.3861 7.33147C10.3311 7.24979 10.2604 7.17976 10.1783 7.12538C10.0961 7.071 10.0041 7.03333 9.90737 7.01453C9.81067 6.99573 9.7112 6.99616 9.61467 7.0158C9.51813 7.03544 9.4264 7.07391 9.34473 7.129C9.26306 7.18409 9.19304 7.25473 9.13867 7.33689C8.66973 8.04535 7.74258 8.50095 6.89355 8.50095C6.47261 8.50095 5.59066 8.15536 4.61133 7.88181C4.01753 7.71595 3.33165 7.61763 2.64355 7.70896C2.97014 5.7178 4.09016 4.41825 5.3623 3.84665C6.11201 3.5098 6.89296 3.42489 7.54102 3.56931C7.87386 3.64348 8.16857 3.77493 8.42578 3.96384C6.48287 4.18709 5.26172 5.18161 5.26172 5.18161C5.18589 5.24541 5.12345 5.32361 5.07801 5.41168C5.03257 5.49975 5.00504 5.59595 4.99699 5.69472C4.98895 5.79349 5.00056 5.89288 5.03116 5.98714C5.06175 6.0814 5.11072 6.16866 5.17523 6.24389C5.23975 6.31911 5.31853 6.38081 5.40703 6.42541C5.49553 6.47001 5.59198 6.49663 5.69083 6.50373C5.78967 6.51083 5.88895 6.49828 5.98291 6.46679C6.07688 6.43531 6.16367 6.38551 6.23828 6.32029C6.23828 6.32029 7.68105 5.04648 10.1162 5.48923C10.1298 5.49156 10.1435 5.49352 10.1572 5.49509C10.1572 5.49509 10.395 5.50821 10.7373 5.82908C11.0796 6.14995 11.5 6.7798 11.5 8.25095V12.251V14.7978C10.8118 14.2926 9.9709 14.001 9.09766 14.001C7.86861 14.001 6.79776 14.6287 6.09277 15.5625C5.6931 15.3798 5.2665 15.251 4.80371 15.251C3.16806 15.251 1.87587 16.5257 1.59766 18.1328C1.53397 18.2451 1.50033 18.3719 1.5 18.5009V20.2509C1.49859 20.3503 1.51696 20.449 1.55402 20.5412C1.59108 20.6335 1.6461 20.7174 1.71588 20.7882C1.78566 20.859 1.86882 20.9152 1.96051 20.9535C2.0522 20.9919 2.15061 21.0116 2.25 21.0116C2.34939 21.0116 2.4478 20.9919 2.53949 20.9535C2.63118 20.9152 2.71434 20.859 2.78412 20.7882C2.8539 20.7174 2.90892 20.6335 2.94598 20.5412C2.98304 20.449 3.00141 20.3503 3 20.2509V18.6406C3.00528 18.6148 3.00919 18.5887 3.01172 18.5625C3.09862 17.5099 3.88209 16.751 4.80371 16.751C5.20111 16.751 5.55899 16.8889 5.85645 17.1318C5.94411 17.2035 6.04687 17.2544 6.157 17.2807C6.26714 17.307 6.38181 17.308 6.49239 17.2836C6.60298 17.2593 6.70662 17.2103 6.79555 17.1402C6.88448 17.0701 6.95638 16.9807 7.00586 16.8789C7.4119 16.0434 8.19869 15.501 9.09766 15.501C10.1603 15.501 11.2272 16.224 11.5332 17.2207C11.5742 17.3544 11.6517 17.474 11.7571 17.566C11.8624 17.658 11.9914 17.7187 12.1295 17.7412C12.2675 17.7638 12.4091 17.7473 12.5382 17.6936C12.6674 17.6399 12.779 17.5512 12.8604 17.4375C13.2352 16.913 13.4807 16.751 14.0898 16.751C14.7096 16.751 15.2514 17.0865 15.584 17.6347L15.5742 17.5986C15.6183 17.6638 15.6951 17.7781 15.6953 17.7783C15.7657 17.8487 15.8494 17.9043 15.9415 17.942C16.0336 17.9797 16.1323 17.9987 16.2318 17.9979C16.3313 17.9971 16.4297 17.9765 16.5212 17.9373C16.6127 17.8981 16.6954 17.841 16.7646 17.7695C16.9349 17.5935 17.1387 17.501 17.3682 17.501C17.6628 17.501 17.9255 17.6566 18.0996 17.9297C18.1674 18.0359 18.2609 18.1234 18.3714 18.1839C18.4819 18.2445 18.6059 18.2763 18.7319 18.2763C18.858 18.2763 18.982 18.2445 19.0925 18.1839C19.203 18.1234 19.2965 18.0359 19.3643 17.9297C19.5383 17.6564 19.8006 17.501 20.0957 17.501C20.567 17.501 20.9872 17.9153 20.9971 18.5136C20.9976 18.5286 20.9986 18.5436 21 18.5586V20.2509C20.9986 20.3503 21.017 20.449 21.054 20.5412C21.0911 20.6335 21.1461 20.7174 21.2159 20.7882C21.2857 20.859 21.3688 20.9152 21.4605 20.9535C21.5522 20.9919 21.6506 21.0116 21.75 21.0116C21.8494 21.0116 21.9478 20.9919 22.0395 20.9535C22.1312 20.9152 22.2143 20.859 22.2841 20.7882C22.3539 20.7174 22.4089 20.6335 22.446 20.5412C22.483 20.449 22.5014 20.3503 22.5 20.2509V18.5009C22.4998 18.3992 22.4788 18.2985 22.4385 18.2051C22.2813 16.9962 21.3322 16.001 20.0957 16.001C19.5728 16.001 19.1246 16.2188 18.7324 16.5146C18.3402 16.2186 17.8917 16.001 17.3682 16.001C16.9791 16.001 16.6263 16.1233 16.3027 16.2959C15.7136 15.6993 14.9785 15.251 14.0898 15.251C13.6892 15.251 13.3312 15.3542 13 15.5097V12.251C13 11.9593 13.0595 11.2829 13.3174 10.664C13.5605 10.0806 13.9633 9.57504 14.6582 9.27244C15.7114 9.29288 16.498 9.43712 16.9502 9.58786C17.4336 9.74901 17.5498 9.85056 17.5498 9.85056C17.6283 9.91285 17.7185 9.95878 17.815 9.98564C17.9115 10.0125 18.0124 10.0198 18.1118 10.007C18.2112 9.99419 18.307 9.96162 18.3936 9.9112C18.4802 9.86078 18.5558 9.79352 18.6159 9.71339C18.6761 9.63327 18.7196 9.5419 18.7438 9.44469C18.7681 9.34748 18.7726 9.24639 18.7572 9.14739C18.7418 9.04839 18.7066 8.95349 18.6539 8.8683C18.6012 8.7831 18.5319 8.70933 18.4502 8.65134C18.4502 8.65134 18.0664 8.37789 17.4248 8.16404C17.1414 8.06957 16.7706 7.98404 16.3594 7.91111C17.0298 7.40127 18.0335 7.31927 19.042 7.73337C20.1117 8.17262 21.0485 9.15915 21.3584 10.7119C20.764 10.6684 20.1799 10.7742 19.6787 10.9267C18.8079 11.1918 18.0273 11.501 17.6992 11.501C17.2558 11.501 16.7697 11.3652 16.3789 11.1269C16.1672 10.9978 15.9838 10.8405 15.8408 10.665C15.7791 10.5872 15.7025 10.5224 15.6156 10.4745C15.5286 10.4265 15.433 10.3963 15.3343 10.3855C15.2356 10.3748 15.1357 10.3838 15.0405 10.4119C14.9452 10.4401 14.8565 10.4869 14.7795 10.5496C14.7025 10.6123 14.6388 10.6897 14.5919 10.7773C14.545 10.8648 14.516 10.9608 14.5066 11.0597C14.4971 11.1585 14.5073 11.2583 14.5367 11.3531C14.5661 11.448 14.614 11.5361 14.6777 11.6123C14.9388 11.9328 15.2534 12.1973 15.5977 12.4072C16.2319 12.7939 16.9646 13.001 17.6992 13.001C18.6121 13.001 19.383 12.5842 20.1152 12.3613C20.8475 12.1384 21.3834 12.0793 21.8379 12.3779C21.951 12.4523 22.0821 12.4946 22.2174 12.5005C22.3526 12.5064 22.4869 12.4755 22.6061 12.4113C22.7252 12.347 22.8247 12.2517 22.8941 12.1354C22.9634 12.0192 23 11.8863 23 11.751C23 9.00173 21.4349 7.09445 19.6113 6.34568C17.7877 5.5969 15.58 5.96128 14.5703 7.6865C14.5583 7.7068 14.5472 7.72765 14.5371 7.749C14.4779 7.74655 14.4185 7.75114 14.3604 7.76267C14.3597 7.76267 14.359 7.76267 14.3584 7.76267C14.1911 7.7925 14.0389 7.87823 13.9268 8.00583C13.5751 8.18069 13.2596 8.3837 13 8.62693V8.25095C13 6.47211 12.4204 5.35195 11.7627 4.73533C11.2733 4.2765 10.8281 4.13686 10.5801 4.07517C10.5205 4.04683 10.4575 4.02647 10.3926 4.01462C10.3814 3.9882 10.3687 3.96244 10.3545 3.93747C9.80284 2.95222 8.87734 2.33056 7.86719 2.10544C7.48838 2.02103 7.09719 1.98793 6.70312 2.00388ZM16.7266 16.7177H16.7559C16.7558 16.7176 16.7887 16.7658 16.8184 16.8095C16.7948 16.7725 16.7514 16.7539 16.7266 16.7177Z" fill="#41342D"/>
</svg>
