<svg width="24" height="24" viewBox="0 0 24 24" fill="none" xmlns="http://www.w3.org/2000/svg">
<path d="M12.3497 17.2323C15.9041 17.2323 18.5596 16.1583 18.5596 14.8335L18.7854 3.54182C18.7854 2.21703 15.9041 1.14307 12.3497 1.14307C8.79542 1.14307 5.91406 2.21703 5.91406 3.54182L6.13988 14.8335C6.13988 16.1583 8.79542 17.2323 12.3497 17.2323Z" stroke="#41342D" stroke-width="1.3" stroke-miterlimit="10" stroke-linecap="round" stroke-linejoin="round"/>
<path d="M17 4C17 4.55228 14.9853 5 12.5 5C10.0147 5 8 4.55228 8 4" stroke="#41342D" stroke-width="1.3" stroke-miterlimit="10" stroke-linecap="round" stroke-linejoin="round"/>
<line x1="3.65" y1="9.65" x2="3.65" y2="19.35" stroke="#41342D" stroke-width="1.3" stroke-miterlimit="10" stroke-linecap="round" stroke-linejoin="round"/>
<line x1="20.65" y1="9.65" x2="20.65" y2="19.35" stroke="#41342D" stroke-width="1.3" stroke-miterlimit="10" stroke-linecap="round" stroke-linejoin="round"/>
<line x1="11.65" y1="13.65" x2="11.65" y2="22.35" stroke="#41342D" stroke-width="1.3" stroke-miterlimit="10" stroke-linecap="round" stroke-linejoin="round"/>
<line x1="4.50553" y1="16.0566" x2="5.77134" y2="15.4237" stroke="#41342D" stroke-width="1.3" stroke-miterlimit="10" stroke-linecap="round" stroke-linejoin="round"/>
<line x1="0.65" y1="-0.65" x2="2.06521" y2="-0.65" transform="matrix(-0.894427 -0.447214 -0.447214 0.894427 20 16.9287)" stroke="#41342D" stroke-width="1.3" stroke-miterlimit="10" stroke-linecap="round" stroke-linejoin="round"/>
</svg>
