<svg width="24" height="24" viewBox="0 0 24 24" fill="none" xmlns="http://www.w3.org/2000/svg">
<path d="M13.0948 0.000339002C12.8784 0.00652665 12.6729 0.0950959 12.5219 0.247296L10.3713 2.35707C10.3121 2.40139 10.2592 2.45331 10.214 2.51142L10.0219 2.69983C9.8657 2.85315 9.77794 3.06106 9.77794 3.27784C9.77794 3.49462 9.8657 3.70253 10.0219 3.85585L12.5219 6.30839C12.5987 6.38684 12.6907 6.44948 12.7925 6.49263C12.8942 6.53578 13.0038 6.55858 13.1146 6.55969C13.2255 6.56079 13.3355 6.54018 13.4381 6.49907C13.5408 6.45796 13.634 6.39717 13.7124 6.32026C13.7908 6.24335 13.8528 6.15187 13.8947 6.05117C13.9366 5.95047 13.9576 5.84258 13.9565 5.73382C13.9553 5.62506 13.9321 5.51761 13.8881 5.41777C13.8441 5.31793 13.7803 5.2277 13.7003 5.15237L12.3635 3.84095C16.8051 4.02809 20.3333 7.59348 20.3333 11.998C20.3333 14.7644 18.9351 17.1943 16.7971 18.6754C16.7077 18.7373 16.6315 18.8159 16.5731 18.9067C16.5146 18.9975 16.4749 19.0987 16.4564 19.2045C16.4378 19.3103 16.4406 19.4187 16.4647 19.5234C16.4888 19.6282 16.5337 19.7272 16.5968 19.815C16.6599 19.9027 16.7401 19.9774 16.8326 20.0347C16.9252 20.092 17.0283 20.1309 17.1362 20.1492C17.2441 20.1674 17.3545 20.1646 17.4613 20.141C17.5681 20.1173 17.6691 20.0732 17.7585 20.0113C20.3204 18.2365 22 15.3062 22 11.998C22 6.87331 17.97 2.65922 12.8572 2.2304L13.7003 1.40331C13.8205 1.28845 13.9026 1.14065 13.9358 0.979274C13.969 0.817894 13.9517 0.650445 13.8863 0.498841C13.8209 0.347237 13.7103 0.218541 13.5691 0.129596C13.4279 0.0406503 13.2626 -0.00440051 13.0948 0.000339002ZM6.76562 3.82924C6.57807 3.82166 6.39341 3.87642 6.24154 3.98465C3.67957 5.75943 2 8.68976 2 11.998C2 17.1226 6.03002 21.3367 11.1428 21.7656L10.2997 22.5926C10.2197 22.668 10.1559 22.7582 10.1119 22.858C10.0679 22.9579 10.0447 23.0653 10.0435 23.1741C10.0424 23.2829 10.0634 23.3907 10.1053 23.4914C10.1472 23.5921 10.2092 23.6836 10.2876 23.7605C10.366 23.8374 10.4592 23.8982 10.5619 23.9393C10.6645 23.9805 10.7745 24.0011 10.8854 24C10.9962 23.9989 11.1058 23.9761 11.2075 23.9329C11.3093 23.8898 11.4013 23.8271 11.4781 23.7487L13.6287 21.6389C13.6879 21.5946 13.7408 21.5427 13.786 21.4845L13.9781 21.2961C14.1343 21.1428 14.2221 20.9349 14.2221 20.7181C14.2221 20.5013 14.1343 20.2934 13.9781 20.1401L11.4781 17.6876C11.4004 17.6091 11.3075 17.5467 11.2048 17.5041C11.1021 17.4615 10.9917 17.4396 10.8802 17.4395C10.7144 17.4396 10.5523 17.4882 10.4148 17.5791C10.2772 17.67 10.1704 17.7991 10.1081 17.9498C10.0458 18.1006 10.0307 18.2662 10.0648 18.4254C10.099 18.5846 10.1807 18.7302 10.2997 18.8436L11.6365 20.155C7.19489 19.9679 3.66667 16.4025 3.66667 11.998C3.66667 9.23154 5.06488 6.80166 7.20291 5.32056C7.34731 5.22347 7.45688 5.08424 7.51608 4.92261C7.57527 4.76099 7.58108 4.58518 7.53269 4.42014C7.48429 4.25509 7.38415 4.10919 7.24646 4.00312C7.10878 3.89706 6.94054 3.83622 6.76562 3.82924Z" fill="#41342D"/>
<path d="M14 12.9361C14 14.076 13.1046 15 12 15C10.8954 15 10 14.076 10 12.9361C10 10.8722 12 9 12 9C12 9 14 10.8722 14 12.9361Z" stroke="#41342D" stroke-width="1.5" stroke-linecap="round" stroke-linejoin="round"/>
</svg>
