<svg width="50" height="50" viewBox="0 0 50 50" fill="none" xmlns="http://www.w3.org/2000/svg">
<rect x="0.5" y="0.5" width="49" height="49" rx="24.5" fill="#F5F1EA"/>
<path d="M12.9263 16.003C12.8056 16.0013 12.6859 16.0236 12.5739 16.0686C12.462 16.1136 12.3601 16.1804 12.2742 16.2651C12.1883 16.3498 12.12 16.4507 12.0735 16.562C12.0269 16.6733 12.0029 16.7928 12.0029 16.9134C12.0029 17.034 12.0269 17.1535 12.0735 17.2648C12.12 17.3761 12.1883 17.477 12.2742 17.5617C12.3601 17.6464 12.462 17.7132 12.5739 17.7582C12.6859 17.8032 12.8056 17.8255 12.9263 17.8238H22.03C22.1507 17.8255 22.2705 17.8032 22.3824 17.7582C22.4944 17.7132 22.5962 17.6464 22.6822 17.5617C22.7681 17.477 22.8363 17.3761 22.8829 17.2648C22.9294 17.1535 22.9534 17.034 22.9534 16.9134C22.9534 16.7928 22.9294 16.6733 22.8829 16.562C22.8363 16.4507 22.7681 16.3498 22.6822 16.2651C22.5962 16.1804 22.4944 16.1136 22.3824 16.0686C22.2705 16.0236 22.1507 16.0013 22.03 16.003H12.9263ZM25.6716 16.003C25.5509 16.0013 25.4312 16.0236 25.3192 16.0686C25.2073 16.1136 25.1054 16.1804 25.0195 16.2651C24.9335 16.3498 24.8653 16.4507 24.8188 16.562C24.7722 16.6733 24.7482 16.7928 24.7482 16.9134C24.7482 17.034 24.7722 17.1535 24.8188 17.2648C24.8653 17.3761 24.9335 17.477 25.0195 17.5617C25.1054 17.6464 25.2073 17.7132 25.3192 17.7582C25.4312 17.8032 25.5509 17.8255 25.6716 17.8238H27.4923C28.0061 17.8238 28.4027 18.2204 28.4027 18.7342V29.9621H21.5962C21.196 28.5672 19.9057 27.5345 18.3885 27.5345C16.8714 27.5345 15.5811 28.5672 15.1809 29.9621H14.747C14.2333 29.9621 13.8367 29.5655 13.8367 29.0518V27.8379C13.8384 27.7161 13.8157 27.5951 13.7698 27.4822C13.7239 27.3693 13.6559 27.2668 13.5697 27.1807C13.4834 27.0945 13.3808 27.0266 13.2678 26.9809C13.1549 26.9352 13.0339 26.9126 12.912 26.9145C12.6708 26.9183 12.4409 27.0176 12.2729 27.1908C12.1049 27.3639 12.0124 27.5967 12.0159 27.8379V29.0518C12.0159 30.5493 13.2495 31.7829 14.747 31.7829H15.1809C15.5811 33.1778 16.8714 34.2106 18.3885 34.2106C19.9057 34.2106 21.196 33.1778 21.5962 31.7829H29.14C29.5402 33.1778 30.8305 34.2106 32.3477 34.2106C33.8648 34.2106 35.1551 33.1778 35.5553 31.7829H35.9892C37.4867 31.7829 38.7203 30.5493 38.7203 29.0518V25.1898C38.7203 24.8066 38.6394 24.4301 38.4856 24.0826C38.4852 24.0822 38.4848 24.0818 38.4844 24.0814L36.6945 20.0535V20.0523C36.2574 19.0682 35.2759 18.4307 34.1992 18.4307H30.1926C30.0379 17.0752 28.8862 16.003 27.4923 16.003H25.6716ZM12.9263 19.6445C12.8056 19.6428 12.6859 19.6651 12.5739 19.7101C12.462 19.7551 12.3601 19.8219 12.2742 19.9066C12.1883 19.9913 12.12 20.0922 12.0735 20.2035C12.0269 20.3148 12.0029 20.4343 12.0029 20.5549C12.0029 20.6756 12.0269 20.795 12.0735 20.9063C12.12 21.0176 12.1883 21.1185 12.2742 21.2032C12.3601 21.2879 12.462 21.3547 12.5739 21.3997C12.6859 21.4447 12.8056 21.467 12.9263 21.4653H19.6024C19.723 21.467 19.8428 21.4447 19.9547 21.3997C20.0667 21.3547 20.1686 21.2879 20.2545 21.2032C20.3404 21.1185 20.4086 21.0176 20.4552 20.9063C20.5017 20.795 20.5257 20.6756 20.5257 20.5549C20.5257 20.4343 20.5017 20.3148 20.4552 20.2035C20.4086 20.0922 20.3404 19.9913 20.2545 19.9066C20.1686 19.8219 20.0667 19.7551 19.9547 19.7101C19.8428 19.6651 19.723 19.6428 19.6024 19.6445H12.9263ZM30.2234 20.2514H34.1992C34.5618 20.2514 34.8833 20.4609 35.0302 20.792L36.1385 23.286H30.2234V20.2514ZM12.9263 23.286C12.8056 23.2843 12.6859 23.3066 12.5739 23.3516C12.462 23.3966 12.3601 23.4634 12.2742 23.5481C12.1883 23.6328 12.12 23.7337 12.0735 23.845C12.0269 23.9563 12.0029 24.0758 12.0029 24.1964C12.0029 24.3171 12.0269 24.4365 12.0735 24.5478C12.12 24.6591 12.1883 24.76 12.2742 24.8448C12.3601 24.9295 12.462 24.9962 12.5739 25.0412C12.6859 25.0862 12.8056 25.1085 12.9263 25.1068H17.1747C17.2953 25.1085 17.4151 25.0862 17.5271 25.0412C17.639 24.9962 17.7409 24.9295 17.8268 24.8448C17.9127 24.76 17.9809 24.6591 18.0275 24.5478C18.0741 24.4365 18.098 24.3171 18.098 24.1964C18.098 24.0758 18.0741 23.9563 18.0275 23.845C17.9809 23.7337 17.9127 23.6328 17.8268 23.5481C17.7409 23.4634 17.639 23.3966 17.5271 23.3516C17.4151 23.3066 17.2953 23.2843 17.1747 23.286H12.9263ZM30.2234 25.1068H36.8913C36.8938 25.1344 36.8995 25.1622 36.8995 25.1898V29.0518C36.8995 29.5655 36.5029 29.9621 35.9892 29.9621H35.5553C35.1551 28.5672 33.8648 27.5345 32.3477 27.5345C31.5429 27.5345 30.8022 27.8253 30.2234 28.3062V25.1068ZM18.3885 29.3552C19.2071 29.3552 19.8539 29.9821 19.8975 30.7884C19.8923 30.8443 19.8923 30.9007 19.8975 30.9567C19.8539 31.763 19.2071 32.3898 18.3885 32.3898C17.57 32.3898 16.9231 31.763 16.8795 30.9567C16.8847 30.9007 16.8847 30.8443 16.8795 30.7884C16.9231 29.9821 17.57 29.3552 18.3885 29.3552ZM32.3477 29.3552C33.1952 29.3552 33.865 30.025 33.865 30.8725C33.865 31.72 33.1952 32.3898 32.3477 32.3898C31.5002 32.3898 30.8304 31.72 30.8304 30.8725C30.8304 30.025 31.5002 29.3552 32.3477 29.3552Z" fill="#41342D"/>
</svg>
