<svg width="24" height="24" viewBox="0 0 24 24" fill="none" xmlns="http://www.w3.org/2000/svg">
<path d="M4.78223 13.8C4.78223 15.29 5.62223 16.12 7.01223 16.12C8.40223 16.12 9.24223 15.29 9.24223 13.8V9.32997H8.29223V13.81C8.29223 14.77 7.82223 15.28 7.01223 15.28C6.20223 15.28 5.73223 14.77 5.73223 13.81V9.32997H4.78223V13.8Z" fill="#41342D"/>
<path d="M10.183 16H11.133V13.41H12.333C13.593 13.41 14.243 12.46 14.243 11.37C14.243 10.27 13.603 9.32997 12.333 9.32997H10.183V16ZM13.263 11.37C13.263 12.08 12.863 12.57 12.223 12.57H11.133V10.17H12.223C12.863 10.17 13.263 10.66 13.263 11.37Z" fill="#41342D"/>
<path d="M14.373 15.28C14.843 15.79 15.533 16.12 16.443 16.12C17.843 16.12 18.533 15.25 18.533 14.22C18.533 12.95 17.573 12.5 16.733 12.11C16.103 11.81 15.533 11.55 15.533 10.98C15.533 10.43 15.953 10.07 16.533 10.07C17.053 10.07 17.553 10.25 17.923 10.65L18.403 9.92997C17.953 9.47997 17.323 9.21997 16.563 9.21997C15.373 9.21997 14.563 9.99997 14.563 11.03C14.563 12.24 15.493 12.64 16.303 13.01C16.973 13.32 17.573 13.61 17.573 14.28C17.573 14.81 17.203 15.27 16.433 15.27C15.783 15.27 15.213 14.95 14.863 14.54L14.373 15.28Z" fill="#41342D"/>
<path d="M20 3.78672C20 6.48332 20 12.6855 20 15.9214C20 19.1573 14.5051 21.9888 11.7576 23C5.57576 21.382 3.34343 17.6068 3 15.9214V10.8653M20 3.78672C17.596 2.43842 10.8303 0.550798 3 3.78672V10.8653M20 3.78672C9.69697 2.57323 4.37374 8.00017 3 10.8653" stroke="#41342D"/>
<path d="M18.5 3.49999C10.5 3.09999 4.83333 7.66666 3 9.99999V4C4.83333 3.33333 9.1 2 11.5 2C13.9 2 17.1667 3 18.5 3.49999Z" fill="#41342D"/>
</svg>
